<?xml version="1.0" encoding="UTF-8" standalone="no"?>
<svg xmlns:rdf="http://www.w3.org/1999/02/22-rdf-syntax-ns#" xmlns="http://www.w3.org/2000/svg" xml:space="preserve" height="171.72" width="171.72" version="1.1" xmlns:cc="http://creativecommons.org/ns#" xmlns:dc="http://purl.org/dc/elements/1.1/" viewBox="0 0 171.7175 171.71812"><g><g stroke="#000"><path d="m1.8379 85.955c0-46.521 37.713-84.238 84.231-84.238 46.522 0 84.231 37.713 84.231 84.238 0 46.522-37.712 84.231-84.231 84.231-46.521 0-84.231-37.712-84.231-84.231z" stroke-width="1.25" fill="#ffcd00"/><path d="m85.703 9.9746c-2.392 0.0354-3.265 1.4214-3.244 2.8244 0.049 3.41 4.849 2.569 4.891 5.443 0.018 1.224-1.013 2.106-2.291 2.125-0.495 0.007-1.35-0.049-1.549-0.5l-0.41-0.847c-0.129-0.315-0.205-0.699-0.547-0.653-0.275 0.018-0.228 0.319-0.184 0.539l0.356 1.783c0.72 0.375 1.587 0.431 2.041 0.424 1.76-0.026 3.57-1.316 3.541-3.31-0.046-3.121-4.924-2.858-4.959-5.278-0.017-1.169 0.99-1.828 1.994-1.843 1.374-0.02 1.449 0.281 1.578 0.623l0.185 0.465c0.087 0.246 0.132 0.589 0.434 0.529 0.123-0.016 0.232-0.113 0.217-0.237l-0.135-1.716c-0.679-0.334-1.519-0.377-1.918-0.3714zm6.742 0.4784c-0.201-0.007-0.401 0.02-0.429 0.203-0.013 0.138 0.048 0.212 0.234 0.299l0.426 0.166c0.134 0.04 0.308 0.097 0.33 0.154 0.074 0.09 0.044 0.267 0.015 0.569l-0.763 8.062c-0.029 0.302-0.033 0.481-0.123 0.569-0.03 0.025-0.212 0.048-0.354 0.076l-0.449 0.082c-0.196 0.037-0.274 0.127-0.285 0.25-0.013 0.275 0.332 0.279 0.578 0.303l2.053 0.195c0.247 0.024 0.585 0.083 0.625-0.19 0.012-0.123-0.046-0.225-0.233-0.298l-0.427-0.164c-0.134-0.054-0.307-0.113-0.331-0.143-0.061-0.089-0.044-0.281-0.015-0.582l0.765-8.063c0.029-0.301 0.041-0.424 0.116-0.486 0.032-0.052 0.219-0.13 0.359-0.158l0.449-0.082c0.199-0.05 0.275-0.113 0.287-0.25 0.01-0.248-0.333-0.279-0.58-0.303l-2.052-0.195c-0.062-0.006-0.128-0.011-0.196-0.014zm-17.599 0.697l0.011 0.008c-0.236-0.012-0.492 0.001-0.765 0.045l-3.082 0.492c-0.258 0.041-0.598 0.094-0.559 0.338 0.022 0.136 0.087 0.195 0.301 0.231l0.441 0.056c0.14 0.006 0.324 0.019 0.373 0.067 0.095 0.068 0.109 0.245 0.157 0.545l1.271 7.998c0.048 0.298 0.09 0.474 0.024 0.582-0.037 0.033-0.207 0.101-0.336 0.164l-0.414 0.179c-0.195 0.087-0.235 0.191-0.215 0.313 0.057 0.27 0.392 0.189 0.636 0.15l2.024-0.322c0.257-0.041 0.602-0.068 0.572-0.342-0.019-0.122-0.102-0.206-0.301-0.23l-0.453-0.053c-0.142-0.019-0.326-0.032-0.357-0.055-0.11-0.08-0.111-0.259-0.158-0.558l-0.557-3.49 1.184-0.19 3.33 4.401 1.507-0.241c0.19-0.03 0.447-0.086 0.399-0.3-0.03-0.191-0.215-0.216-0.369-0.219l-0.571-0.076c-0.198-0.025-0.349-0.098-0.429-0.168-0.12-0.135-0.174-0.223-0.281-0.373l-2.602-3.389c0.027-0.005 2.035-1.117 1.75-3.174-0.119-0.98-0.878-2.305-2.531-2.389zm24.697 0.116l-0.582 1.279c-0.086 0.192-0.166 0.485 0.1 0.559 0.292 0.078 0.494-0.258 0.607-0.387l0.27-0.321c0.102-0.132 0.202-0.278 0.322-0.308 0.16-0.021 0.09-0.01 0.29 0.035l1.85 0.414-1.92 8.588c-0.06 0.295-0.09 0.473-0.19 0.549-0.05 0.018-0.14 0.125-0.362 0.103l-0.461-0.017c-0.235-0.024-0.32 0.11-0.33 0.22-0.038 0.232 0.179 0.266 0.353 0.305l2.34 0.522c0.2 0.045 0.47 0.135 0.52-0.123 0.01-0.137-0.02-0.257-0.23-0.332l-0.41-0.176c-0.21-0.075-0.28-0.204-0.29-0.25-0.02-0.103 0.02-0.277 0.08-0.572l1.91-8.592 2 0.447c0.2 0.045 0.14 0.003 0.26 0.086 0.11 0.081 0.14 0.258 0.16 0.418l0.12 0.406c0.03 0.163 0.07 0.551 0.37 0.604 0.29 0.049 0.33-0.251 0.33-0.461l0.02-1.407-7.127-1.589zm-25.145 0.523c1.169 0.036 1.705 0.904 1.905 1.932 0.29 1.387-0.565 2.569-1.828 2.769l-1.1 0.174-0.738-4.644 1.22-0.194c0.194-0.031 0.375-0.042 0.541-0.037zm-8.691 1.209l-5.537 1.777c-0.249 0.08-0.577 0.185-0.51 0.438 0.038 0.118 0.115 0.18 0.328 0.17l0.444-0.012c0.147 0.01 0.339-0.024 0.382 0.02 0.117 0.049 0.128 0.177 0.225 0.478l2.484 7.736c0.093 0.289 0.182 0.477 0.12 0.598-0.014 0.048-0.185 0.145-0.307 0.213l-0.369 0.248c-0.176 0.128-0.21 0.198-0.172 0.316 0.097 0.258 0.415 0.127 0.664 0.047l5.67-1.82-0.154-1.828c0.006-0.161-0.048-0.374-0.27-0.346-0.249 0.036-0.336 0.526-0.373 0.682l-0.195 0.742c-0.028 0.139-0.007 0.203-0.157 0.367-0.075 0.082-0.096 0.105-0.292 0.168l-2.672 0.856c-0.092 0.029-0.217-0.003-0.256-0.034-0.069-0.079-0.123-0.249-0.215-0.537l-1.156-3.599 2.527-0.811c0.196-0.063 0.362-0.13 0.514-0.107 0.148 0.01 0.18 0.157 0.261 0.275l0.202 0.313c0.089 0.144 0.248 0.323 0.388 0.22 0.114-0.051 0.159-0.137 0.125-0.242l-0.732-2.277c-0.046-0.144-0.157-0.267-0.276-0.229-0.187 0.046-0.162 0.253-0.168 0.414l-0.009 0.422c0.002 0.143 0.022 0.254-0.053 0.379-0.093 0.116-0.275 0.131-0.445 0.186l-2.539 0.814-1.325-4.123 2.815-0.904c0.209-0.067 0.365-0.118 0.5-0.104 0.074 0.005 0.19 0.143 0.267 0.248l0.241 0.297c0.137 0.158 0.256 0.396 0.488 0.307 0.34-0.11 0.004-0.622-0.094-0.879l-0.369-0.879zm45.343 1.209c-0.09-0.011-0.18 0.014-0.21 0.125-0.04 0.12 0 0.136 0.18 0.313l0.32 0.275c0.11 0.102 0.26 0.251 0.28 0.305 0.09 0.14 0.11 0.429 0.13 0.779l0.32 5.348-1.19 2.959c-0.08 0.204-0.14 0.356-0.23 0.5-0.13 0.226-1.01-0.202-1.14 0.148-0.05 0.171 0.11 0.251 0.24 0.303l2.29 0.922c0.14 0.056 0.31 0.11 0.39-0.038 0.14-0.326-0.63-0.608-0.7-0.873-0.05-0.151 0.02-0.318 0.1-0.509l1.23-3.075 3.88-3.597c0.24-0.216 0.49-0.411 0.65-0.51 0.26-0.163 1.08 0.167 1.16-0.068 0.08-0.217-0.13-0.286-0.28-0.348l-2.05-0.826c-0.14-0.056-0.3-0.149-0.39 0.08-0.15 0.296 0.72 0.558 0.65 0.842-0.03 0.163-0.24 0.315-0.41 0.484l-3.17 2.904-0.3-4.386c-0.01-0.184-0.06-0.439-0.02-0.602 0.03-0.12 0.14-0.105 0.25-0.107l0.36 0.025c0.22 0 0.28 0.01 0.32-0.105 0.1-0.212-0.09-0.259-0.27-0.33l-2.09-0.842c-0.09-0.036-0.2-0.085-0.3-0.096zm-55.353 2.268c-0.068 0.013-0.143 0.071-0.217 0.109l-2.017 1.039c-0.123 0.063-0.298 0.138-0.131 0.315 0.15 0.17 0.908-0.127 1.033 0.056 0.1 0.134 0.084 0.344 0.117 0.559l1.217 7.924-5.926-5.625c-0.223-0.195-0.242-0.201-0.324-0.36-0.044-0.117 0.06-0.185 0.145-0.26l0.224-0.224c0.152-0.156 0.251-0.237 0.219-0.36-0.082-0.22-0.278-0.12-0.437-0.039l-1.993 1.028c-0.171 0.088-0.448 0.182-0.316 0.408 0.075 0.116 0.124 0.092 0.357 0.064l0.401-0.066c0.129-0.02 0.3-0.047 0.344-0.023 0.111 0.036 0.359 0.28 0.621 0.517l7.199 6.779 0.428-0.22-1.416-9.848c-0.035-0.276-0.082-0.546-0.053-0.73 0.033-0.296 0.779-0.68 0.703-0.889-0.048-0.138-0.109-0.168-0.178-0.154zm-11.802 6.73v0.002c-0.154-0.02-0.35 0.118-0.502 0.225l-1.688 1.183c-0.202 0.142-0.484 0.341-0.353 0.551 0.078 0.113 0.176 0.128 0.373 0.074l0.429-0.152c0.129-0.056 0.3-0.125 0.354-0.096 0.115 0.021 0.205 0.176 0.379 0.424l4.652 6.629c0.173 0.247 0.288 0.385 0.275 0.512-0.006 0.038-0.13 0.174-0.218 0.287l-0.289 0.353c-0.127 0.156-0.126 0.275-0.055 0.377 0.169 0.217 0.434-0.002 0.637-0.144l1.687-1.186c0.203-0.142 0.501-0.318 0.354-0.551-0.071-0.101-0.182-0.139-0.371-0.074l-0.432 0.151c-0.136 0.045-0.306 0.114-0.344 0.107-0.104-0.028-0.215-0.184-0.388-0.432l-4.653-6.631c-0.174-0.247-0.243-0.349-0.226-0.445-0.01-0.06 0.081-0.243 0.17-0.355l0.289-0.354c0.118-0.167 0.135-0.262 0.056-0.375-0.038-0.049-0.085-0.073-0.136-0.08zm84.335 0.383c-1.65 0.088-3.25 1.051-4.29 2.494-1.68 2.333-1.92 5.533 0.66 7.389 2.31 1.663 5.48 0.605 7.17-1.748 1.7-2.355 1.87-5.466-0.63-7.266-0.91-0.66-1.92-0.922-2.91-0.869zm0.57 0.723c0.68-0.026 1.36 0.155 2 0.615 1.97 1.414 1.56 3.963 0.01 6.105-1.33 1.853-3.77 3.383-5.81 1.912-2.11-1.518-1.64-4.078-0.12-6.187 0.95-1.327 2.43-2.388 3.92-2.445zm-90.472 2.824c-0.118-0.036-0.23 0.078-0.359 0.197l-1.77 1.629c-0.111 0.102-0.156 0.218-0.082 0.318 0.128 0.2 0.339 0.063 0.518-0.027l0.328-0.19c0.089-0.044 0.209-0.098 0.287-0.115 0.099-0.035 0.212 0.067 0.305 0.168l5.045 5.485-10.246-2.1-1.104 1.014c-0.081 0.074-0.191 0.157-0.08 0.298 0.093 0.101 0.103 0.131 0.35 0.034l0.365-0.151c0.149-0.062 0.267-0.114 0.375-0.119 0.185-0.002 0.305 0.129 0.51 0.352l5.474 5.949c0.317 0.344 0.324 0.413 0.309 0.539-0.003 0.058-0.068 0.231-0.16 0.354l-0.229 0.359c-0.115 0.18-0.07 0.27-0.016 0.369 0.166 0.221 0.393-0.061 0.575-0.228l1.507-1.387c0.152-0.14 0.363-0.336 0.157-0.52-0.123-0.092-0.27-0.049-0.53 0.096l-0.298 0.162c-0.119 0.053-0.228 0.097-0.344 0.072-0.126-0.015-0.247-0.144-0.451-0.367l-5.055-5.496 10.709 2.199 0.305-0.279-6.36-6.912c-0.204-0.223-0.344-0.395-0.347-0.522-0.017-0.078 0.038-0.221 0.111-0.326l0.269-0.396c0.105-0.19 0.129-0.267 0.055-0.367-0.042-0.051-0.083-0.08-0.123-0.092zm99.582 3.164c-0.05-0.001-0.1 0.017-0.15 0.06-0.09 0.088-0.12 0.175 0 0.37l0.21 0.388c0.06 0.116 0.17 0.282 0.16 0.35 0 0.117-0.1 0.194-0.31 0.408l-5.74 5.754c-0.23 0.224-0.36 0.379-0.49 0.389-0.06 0-0.22-0.106-0.33-0.174l-0.39-0.215c-0.2-0.107-0.27-0.095-0.36-0.008-0.18 0.204 0.08 0.427 0.26 0.602l1.56 1.564c0.13 0.126 0.32 0.281 0.46 0.125 0.12-0.117 0.13-0.204 0.02-0.389l-0.28-0.457c-0.05-0.086-0.09-0.184-0.09-0.242 0.04-0.097 0.17-0.214 0.4-0.437l2.67-2.678 1.76 1.758c0.15 0.145 0.29 0.272 0.34 0.418s-0.03 0.242-0.1 0.369l-0.23 0.31c-0.09 0.147-0.14 0.351 0 0.467 0.1 0.098 0.22 0.029 0.31-0.058l1.65-1.655c0.1-0.097 0.22-0.233 0.07-0.339-0.14-0.117-0.25-0.078-0.44 0.029l-0.35 0.215c-0.15 0.078-0.26 0.146-0.4 0.117-0.12-0.039-0.26-0.194-0.4-0.33l-1.76-1.758 3.07-3.076 2.03 2.019c0.1 0.098 0.27 0.272 0.31 0.389 0.04 0.058-0.03 0.225-0.1 0.352l-0.16 0.339c-0.1 0.175-0.22 0.429-0.03 0.594 0.23 0.214 0.55-0.303 0.74-0.508l0.59-0.728-4.04-4.031c-0.13-0.131-0.3-0.3-0.46-0.303zm-54.158 0.174v0.002c-0.043-0.005-0.085 0.002-0.123 0.025-2.741 1.676-5.482 3.352-8.223 5.027-0.198 0.122-0.098 0.385 0.11 0.409 0.915 0.099 1.832 0.198 2.748 0.298-1.712 1.553-3.423 3.106-5.135 4.659-0.074 0.067-0.082 0.149-0.053 0.218-1.152 0.476-2.082 1.355-2.523 2.709-0.102 0.13-0.163 0.284-0.164 0.469l-4.709 4.557c-2.969-0.064-6.34 1.419-8.686 2.601-5.163 2.605-9.134 6.999-11.662 12.147-3.256 6.63-4.085 14.604-4.41 21.888-0.27 6.052-0.046 12.351 1.162 18.308 1.057 5.21 2.832 10.32 4.607 15.33 0.458 1.29 1.444 6.3 3.118 6.78 0.123 0.04 0.239 0.02 0.295-0.1 0.343-0.77-0.379-2.72-0.512-3.51-0.409-2.43-0.826-4.86-1.242-7.29-0.278-1.63-0.557-3.25-0.836-4.87 0.017 0.1 0.88 0.04 1.47-0.05 1.042-0.17 1.485-0.98 1.797-1.88 0.375-1.08 0.557-2.25 0.754-3.37-0.008 0.04 1.566-0.6 1.789-0.73 2.006-1.21 2.583-3.73 2.762-5.871 0.073-0.875-0.021-1.089-0.188-1.133 0.83 0.22 1.404 0.094 2.184-0.293 1.518-0.754 1.946-3.044 2.055-4.748 0.921-0.206 2.33-2.092 2.943-3.295 1.005 0.963 3.051 0.843 4.459 0.265 0.036 0.747 0.343 1.469 0.99 1.934 0.455 0.326 1.053 0.655 1.641 0.623 0.674-0.037 0.668-0.031 1.301-0.168 0.146-0.032 0.209-0.086 0.24-0.141 0.044 0.088 0.109 0.198 0.232 0.368 0.081 0.11 0.188 0.189 0.295 0.236-2.264 1.078-3.973 3.071-3.886 5.906 0.091 3.007-0.87 5.947-0.12 8.917 0.455 1.8 2.064 3.55 3.319 5.02-0.391 0.88-0.148 2.39-0.256 3.29-0.198 1.65-0.613 2.99-1.428 4.43-0.949 1.68-1.954 2.02-3.748 2.49-0.046 0.01-0.088 0.02-0.133 0.03-0.114 0.04-0.229 0.07-0.343 0.1 0.012-0.01 0.037-0.01 0.05-0.01-0.479 0.16-0.893 0.36-1.334 0.71-0.626 0.49-0.705 1.1-0.425 1.45-0.178 0.31-0.354 0.71-0.268 1.08 0.275-0.32 0.394-0.42 0.561-0.56 0.122-0.1 0.196-0.19 0.257-0.27 0.061 0.01 0.117 0.02 0.184 0.01-0.03 0.02-0.056 0.03-0.086 0.04 0.093-0.02 0.188-0.05 0.281-0.07 0.013-0.01 0.025-0.01 0.037-0.01 0.011 0 0.021-0.01 0.032-0.01-0.828 0.71-0.971 1.55-0.096 2.32-0.064 0.26-0.215 0.95 0.084 1.4 0.144-0.4 0.219-0.54 0.324-0.72 0.063-0.12 0.145-0.2 0.211-0.25 0.12 0.07 0.229 0.14 0.369 0.21 0.051 0.02 0.607-0.13 0.633-0.17 0.063-0.12 0.128-0.24 0.191-0.35 0.077 0.88 0.681 1.62 1.629 1.81 0.009 0.24 0.069 1.27 0.577 1.52-0.068-0.41 0.019-0.37 0.019-0.58 0-0.22 0.258-0.88 0.258-0.88l-0.135-0.02c0.129-0.01 0.257-0.02 0.395-0.05-0.024 0.01-0.03 0.02-0.055 0.03 0.068-0.02 0.137-0.04 0.205-0.06h0.027c0.13-0.04 0.278-0.06 0.401-0.11 2.157-0.96-0.409-0.5 0.299-2.07 0.295 0.1 0.534 0.31 0.759 0.59 0.02 0.02 0.591-0.13 0.633-0.17 0.768-0.74 0.695-2.15 0.672-3.12-0.017-0.73-0.868-1.36-1.318-1.82 0.037 0.04 0.397-0.41 0.8-0.94 0 0.01 0.004 0.02 0.002 0.02 0.003-0.01 0.002-0.02 0.004-0.03 0.607-0.79 1.335-1.8 1.43-1.94 0.079-0.12 0.154-0.25 0.23-0.37 0.011 0.05 0.019 0.09 0.032 0.14 0.028 0.1-0.005-0.08-0.008-0.1l-0.012-0.06c0.102-0.16 0.201-0.32 0.299-0.48-0.047 0.65-0.086 1.3-0.102 1.95-0.006 0.28 0.381 0.24 0.534 0.13 1.101-0.79 2.179-1.57 3.183-2.48 0.093-0.09 0.156-0.16 0.223-0.23-0.017 0.07-0.036 0.14-0.045 0.23-0.184 1.74-0.157 3.52-0.105 5.27 0.008 0.26 0.376 0.26 0.533 0.13 1.126-0.99 3.9-2.97 3.865-4.03 0.066 2 0.511 4.1 1.144 6 0.085 0.25 0.448 0.15 0.584 0.01 1.377-1.4 2.715-2.82 3.633-4.57-0.374 0.71 1.771 3.45 2.225 4.18 0.131 0.21 0.5 0.07 0.592-0.1 0.68-1.31 1.897-2.9 2.113-4.39-0.112 0.78 2.12 2.02 2.588 2.35 0.165 0.11 0.465 0.04 0.547-0.15 0.573-1.3 0.935-2.57 1.062-3.99 0.008-0.09 1.997 0.45 2.364 0.53 0.085 0.02 0.169 0 0.24-0.04 0.377 0.5 0.785 0.97 1.201 1.43-0.181-0.2-1.275 1.59-1.336 1.82-0.255 0.94 0.026 2.1 0.557 2.92-0.341 0.21-0.731 0.41-1.172 0.56-1.564 0.53-2.033 0.52-3.549 0.3-1.515-0.23-3.914-0.38-5.453 0.41-1.54 0.79-3.056 3.32-3.797 5.17s-2.248 5.34-3.346 6.16c-1.095 0.83-2.347 1.53-3.357 1.32-1.008-0.22-1.287-0.57-1.373-0.95s-0.112-0.76 0.24-0.78c0.351-0.03 0.601 0.07 0.787 0.23-0.027-0.19-0.206-0.64-0.394-0.74-0.189-0.1-0.607-0.26-0.893 0s-0.581 0.67-0.5 1.27 0.438 1.6 1.385 1.78c0.946 0.18 1.04 0.27 2.09 0.08 1.05-0.2 2.622-1.02 3.076-1.45 0.453-0.43 2.609-3.94 3.183-5.48 0.575-1.54 1.627-3.31 2.352-4 0.643-0.62 2.299-1.11 3.439-1.08 1.141 0.02 4.005 0.16 5.377-0.19 1.04-0.27 2.043-0.75 2.714-1.17 0.35 0.08 1.01 0.48 1.63 0.7v-0.03l0.87 0.09s-0.06 0.08-0.07 0.1h0.01-0.01l-0.01 0.01c0.04-0.01 0.07-0.02 0.11-0.03h0.03c0.01-0.01 0.02-0.01 0.04-0.02 0.14-0.03 0.29-0.07 0.43-0.11-0.04 0-0.07-0.01-0.11-0.01 0.77-0.35 1.46-1.11 1.71-1.9 0.12 0.03 0.26 0.04 0.41 0.02-0.03 0.01-0.05 0.03-0.09 0.04 0.12-0.03 0.23-0.06 0.35-0.09 0.02 0 0.03 0 0.05-0.01 0.02 0 0.03-0.01 0.04-0.01 0.07-0.02 0.13-0.04 0.2-0.06h-0.04c0.07-0.02 0.13-0.06 0.19-0.08-0.06-0.05-0.11-0.07-0.11-0.07l0.58-0.65 0.12 0.36c0.72-0.62 0.51-1.53-0.18-2.2-0.03-0.02-0.03-0.01-0.06-0.03l0.02-0.01 0.67-0.59s0.07 0.12 0.11 0.16c0.22-0.55 0.07-0.98-0.33-1.31 1.19-1.29 3.1-3.34 3.85-3.97 1.01-0.87 2.58-1.39 4.02-1.57 1.45-0.19 7.55-0.71 8.78-1.23 1.23-0.53 1.7-1.85 1.83-2.4 0.12-0.55-0.21-1.27-0.63-1.67-0.4-0.39-1.25-0.33-1.66-0.04-0.69 0.49-0.5 1.68-0.5 1.68s0.18-0.74 0.69-0.95c0.26-0.12 0.64-0.01 0.84 0.26 0.24 0.32 0.04 0.92-0.31 1.46-0.35 0.55-1.13 0.97-3.02 1.15-1.88 0.18-3.88 0.13-5.53-0.02-1.66-0.15-3.78 0.57-5.02 1.21-1.23 0.63-2.6 2.15-3.4 3.24-0.47 0.64-0.97 1.45-1.49 2.08-1.09-0.36-2.29-0.63-2.75-1.02-1.34-1.16-1.89-3.78-1.77-5.92 4.79-0.89 6.15-6.15 5.89-10.36-0.17-2.7 1.18-5.232-0.1-7.866-0.63-1.284-1.29-2.308-2.13-3.082 1.16-1.539 0.98-1.17 2.79-0.975 2.04 0.221 2.54-2.139 1.45-3.263v-0.008c1 0.969 4.19 2.229 5.36 1.031 0.46 1.087 1.18 2.09 2.05 2.836 0.18 0.157 0.39 0.293 0.59 0.369 0.25 2.238 1.33 5.523 3.67 5.434-0.05 2.874 1.17 7.024 4.22 7.694 0.31 2.68 0.81 5.27 3.59 5.64-0.85 3.92-1.69 7.84-2.53 11.75h-0.01s-0.41 1.89-0.46 2.06c-0.05 0.16-0.14 1.94-0.14 1.94s0.59-0.65 0.96-1.11h0.01l0.06-0.12c0.23-0.41 0.93-1.99 0.93-1.99 3.38-7.21 6.59-14.72 7.91-22.58 1.1-6.497 1.41-13.144 1.07-19.722-0.35-6.665-1.43-14.058-5.05-19.818-3.92-6.243-11.05-12.138-18.76-12.408-5.58-0.196-6.78 5.728-5.51 10.008 0.94 3.135 2.77 6.091 2.75 9.443-0.01 2.015-2 3.393-3.87 3.01-1.33-0.271-2.62-2.139-3.33-3.467-0.58-3.695-3.417-5.748-4.371-9.274-0.2-0.738-2.69-4.453-3.038-4.453 0.874 0 1.441-0.204 2.01-0.855 0.044-0.051 0.033-0.089-0.029-0.111-2.951-1.08-5.295-3.519-7.026-6.024 0.429 0.621 2.805-0.507 3.165-0.996 0.037-0.051 0.036-0.089-0.032-0.111-3.771-1.203-10.559-10.757-14.463-4.576-0.003 0.008-0.005 0.02-0.009 0.029-0.911-0.35-1.9-0.545-2.866-0.545l3.178-2.764c0.339-0.294 0.677-0.59 1.016-0.885 0.102 0.233 0.205 0.466 0.306 0.698 0.139 0.315 0.274 0.631 0.413 0.947 0.085 0.196 0.338 0.098 0.4-0.053 1.064-2.622 2.13-5.244 3.195-7.867 0.056-0.138-0.068-0.26-0.197-0.273zm23.338 91.687c-0.04 0.09-0.06 0.17-0.12 0.27-0.03 0.05-0.56 0.18-0.63 0.17-0.01-0.01-0.02-0.01-0.03-0.01 0.02 0.01 0.03 0.03 0.04 0.04 0.37 0.2 0.41 0.14 0.64 0.33 0.17 0.14 0.21 0.12 0.48 0.44 0.12-0.52-0.23-1.04-0.38-1.24zm-0.56 2.67c-0.15 0.14-0.35 0.25-0.59 0.36 0.07 0.04 0.16 0.11 0.23 0.2 0.13 0.17 0.22 0.3 0.42 0.66 0.19-0.39 0.06-0.88-0.06-1.22zm-3.91 2.62c-0.01 0-0.01 0.01-0.02 0.01 0.01-0.01 0.02-0.01 0.03-0.02-0.23 0.02-0.51-0.06-0.8-0.16 0.01 0.04 0.04 0.22-0.02 0.41-0.06 0.2-0.1 0.35-0.28 0.73 0.56-0.1 0.99-0.8 1.09-0.97zm-75.784-91.393c-0.132-0.009-0.213 0.129-0.297 0.244l-1.502 2.037c-0.151 0.204-0.318 0.432-0.086 0.623 0.067 0.069 0.19 0.062 0.426-0.098l0.387-0.285c0.132-0.099 0.306-0.227 0.363-0.224 0.132-0.02 0.238 0.076 0.518 0.283l6.214 4.599c1.273 0.938 1.377 2.529 0.274 4.053-1.01 1.396-2.388 2.071-3.942 0.926l-6.39-4.709c-0.115-0.085-0.207-0.173-0.233-0.272-0.026-0.097-0.008-0.281 0.057-0.449l0.174-0.422c0.099-0.24 0.081-0.43-0.008-0.496-0.229-0.169-0.37 0.022-0.492 0.188l-1.576 2.138c-0.169 0.23-0.395 0.536-0.162 0.727 0.076 0.056 0.165 0.041 0.414-0.109l0.396-0.297c0.132-0.099 0.296-0.215 0.365-0.203 0.133-0.02 0.238 0.077 0.518 0.283l6.199 4.57c0.407 0.3 2.844 1.604 5.068-1.256 2.536-3.199 0.218-5.279-0.062-5.486l-6.225-4.586c-0.28-0.206-0.477-0.313-0.488-0.459-0.019-0.054 0.036-0.208 0.086-0.328l0.184-0.516c0.055-0.155 0.063-0.324-0.03-0.412-0.057-0.042-0.106-0.061-0.15-0.064zm122.61 4.978c-0.03 0.005-0.06 0.015-0.09 0.033-0.13 0.09-0.15 0.201-0.09 0.428l0.17 0.496c0.06 0.149 0.14 0.347 0.1 0.408-0.02 0.132-0.2 0.235-0.48 0.432l-7.68 5.277c-0.29 0.197-0.45 0.327-0.59 0.311-0.05-0.008-0.2-0.152-0.33-0.256l-0.4-0.336c-0.18-0.146-0.32-0.149-0.43-0.068-0.25 0.192-0.01 0.5 0.16 0.734l1.34 1.955c0.16 0.235 0.36 0.579 0.63 0.412 0.12-0.08 0.16-0.207 0.09-0.425l-0.17-0.498c-0.05-0.158-0.13-0.355-0.12-0.399 0.03-0.119 0.22-0.244 0.5-0.441l7.68-5.276c0.28-0.197 0.4-0.278 0.51-0.258 0.07-0.01 0.28 0.098 0.41 0.202l0.4 0.336c0.19 0.137 0.3 0.157 0.43 0.068 0.23-0.174 0-0.5-0.16-0.734l-1.34-1.956c-0.14-0.205-0.33-0.478-0.54-0.445zm1.16 9.397c-0.85 0.033-1.72 0.251-2.52 0.642-2.58 1.263-4.3 3.974-2.9 6.826 1.25 2.557 4.54 3.119 7.15 1.844 2.6-1.275 4.22-3.937 2.87-6.703-0.91-1.859-2.72-2.683-4.6-2.609zm1 0.996c1.28 0.048 2.46 0.596 3.08 1.867 1.06 2.174-0.5 4.227-2.88 5.387-2.05 1.003-4.92 1.201-6.02-1.059-1.15-2.334 0.47-4.369 2.81-5.512 0.93-0.457 2-0.721 3.01-0.683zm-134.76 3.349l-2.227 5.375c-0.101 0.242-0.23 0.559 0.006 0.672 0.114 0.048 0.21 0.028 0.34-0.142l0.277-0.346c0.103-0.106 0.202-0.273 0.264-0.277 0.113-0.058 0.218 0.014 0.509 0.134l7.508 3.112c0.279 0.116 0.481 0.169 0.533 0.295 0.028 0.041-0.009 0.233-0.037 0.371l-0.047 0.441c-0.015 0.217 0.013 0.289 0.127 0.336 0.26 0.093 0.367-0.235 0.467-0.477l2.28-5.5-1.495-1.064c-0.118-0.109-0.317-0.207-0.439-0.019-0.133 0.212 0.184 0.597 0.279 0.726l0.44 0.629c0.087 0.111 0.151 0.138 0.179 0.357 0.014 0.11 0.017 0.14-0.062 0.33l-1.074 2.592c-0.037 0.09-0.143 0.165-0.192 0.174-0.105 0.001-0.269-0.068-0.549-0.184l-3.492-1.445 1.016-2.453c0.079-0.191 0.134-0.36 0.25-0.461 0.103-0.106 0.238-0.036 0.381-0.021l0.367 0.048c0.168 0.025 0.408 0.02 0.42-0.154 0.035-0.119-0.002-0.208-0.104-0.25l-2.211-0.916c-0.139-0.057-0.306-0.054-0.353 0.061-0.086 0.172 0.089 0.291 0.207 0.4l0.316 0.279c0.112 0.091 0.207 0.145 0.254 0.284 0.029 0.146-0.078 0.296-0.146 0.461l-1.02 2.462-4.002-1.656 1.131-2.732c0.084-0.203 0.147-0.356 0.246-0.449 0.051-0.053 0.23-0.053 0.36-0.043l0.384 0.009c0.21-0.002 0.467 0.058 0.549-0.175 0.137-0.33-0.473-0.403-0.732-0.497l-0.908-0.287zm141.55 5.922c-0.02 0.001-0.05 0.006-0.08 0.018-0.13 0.048-0.16 0.128-0.16 0.355l-0.01 0.371c0.01 0.153 0 0.37-0.03 0.42-0.06 0.101-0.35 0.29-0.65 0.453l-8.35 4.911 0.09 0.361 9.62 0.115-8.34 4.822 0.09 0.332 9.79 0.229c0.24 0.007 0.49-0.016 0.65 0.086 0.28 0.181 0.56 0.963 0.8 0.914 0.19-0.035 0.15-0.195 0.12-0.315l-0.62-2.369c-0.03-0.133-0.11-0.24-0.25-0.218-0.37 0.066-0.04 1.048-0.28 1.097-0.17 0.028-0.21 0.025-0.34 0.03l-7.44-0.1 6.35-3.635c0.14-0.081 0.27-0.13 0.44-0.158 0.11-0.014 0.52 0.633 0.65 0.611 0.3-0.049 0.2-0.223 0.16-0.383l-0.62-2.382c-0.03-0.133 0-0.27-0.26-0.231-0.22 0.029-0.11 0.881-0.37 0.934-0.18 0.048-0.29 0.008-0.47-0.004l-7.38-0.088 6.44-3.633c0.28-0.155 0.26-0.166 0.42-0.207 0.11-0.027 0.18 0.165 0.25 0.291l0.18 0.279c0.13 0.166 0.2 0.261 0.32 0.243 0.24-0.019 0.18-0.245 0.14-0.405l-0.61-2.328c-0.04-0.175-0.07-0.419-0.25-0.416zm-145.08 3.94c-0.27-0.05-0.311 0.181-0.355 0.369l-0.531 2.262c-0.057 0.241-0.132 0.561 0.119 0.634 0.077 0.033 0.192 0.018 0.316-0.207l0.215-0.373c0.072-0.125 0.153-0.289 0.199-0.306 0.1-0.062 0.217-0.019 0.512 0.05l3.557 0.85-1.092 4.644-3.735-0.876c-0.12-0.029-0.221-0.082-0.275-0.151-0.057-0.056-0.058-0.24-0.066-0.383l-0.022-0.443c-0.019-0.216-0.065-0.326-0.199-0.357-0.241-0.057-0.291 0.157-0.332 0.332l-0.529 2.248c-0.057 0.24-0.133 0.563 0.119 0.636 0.08 0.019 0.193 0.017 0.314-0.195l0.215-0.373c0.072-0.124 0.153-0.29 0.203-0.32 0.099-0.062 0.214-0.007 0.508 0.062l7.937 1.865c0.309 0.073 0.487 0.089 0.549 0.188 0.03 0.049 0.087 0.232 0.082 0.373l0.03 0.416c0.02 0.216 0.077 0.272 0.181 0.311 0.258 0.102 0.289-0.271 0.342-0.499l0.471-1.994c0.065-0.281 0.191-0.703-0.073-0.722-0.123-0.015-0.193-0.019-0.33 0.259l-0.203 0.391c-0.061 0.141-0.179 0.282-0.228 0.313-0.103 0.075-0.271 0.007-0.578-0.065l-3.604-0.832 1.092-4.646 3.734 0.879c0.174 0.041 0.353 0.054 0.414 0.154 0.034 0.036 0.091 0.219 0.086 0.359l0.03 0.416c0.02 0.217 0.074 0.286 0.181 0.311 0.255 0.117 0.289-0.271 0.34-0.485l0.471-2.007c0.063-0.269 0.194-0.703-0.071-0.723-0.126-0.001-0.191-0.018-0.328 0.26l-0.209 0.404c-0.058 0.128-0.178 0.284-0.228 0.314-0.1 0.062-0.27 0.007-0.578-0.066l-7.938-1.865c-0.294-0.07-0.416-0.085-0.478-0.184-0.03-0.049-0.028-0.247-0.039-0.377l-0.02-0.457c-0.02-0.216 0.012-0.35-0.176-0.394zm138.24 11.634c-0.26-0.006-0.21 0.308-0.19 0.514l0.17 2.055c-0.01 0.097 0.06 0.396 0.26 0.338 0.12-0.024 0.2-0.154 0.23-0.364l0.07-0.31c0.02-0.14 0.1-0.311 0.21-0.307 0.17-0.013 0.25 0.007 0.53 0.094l2.08 0.521 0.31 3.836-2.14 0.963c-0.13 0.066-0.21 0.142-0.38 0.141-0.27-0.004-0.22-0.878-0.59-0.861-0.26 0.007-0.24 0.184-0.22 0.349l0.19 2.385c0.02 0.178-0.03 0.457 0.27 0.404 0.36-0.083 0.21-0.845 0.48-1.088 0.14-0.122 0.33-0.177 0.55-0.279l9.09-4.141-0.04-0.492-9.55-2.527c-0.33-0.098-0.66-0.166-0.77-0.254-0.04-0.024-0.11-0.2-0.15-0.32l-0.14-0.416c-0.07-0.201-0.13-0.238-0.27-0.241zm-140.89 0.182v0.002c-0.067 0-0.134 0.006-0.194 0.014l-1.6011 0.217-0.6074 8.374 1.5547 0.444c0.2328 0.065 0.5788 0.107 0.6168-0.207 0.042-0.346-0.374-0.52-0.5407-0.627l-0.4101-0.252c-0.1675-0.091-0.3525-0.183-0.4063-0.315-0.0506-0.177-0.0233-0.097-0.0058-0.334l0.1562-2.175 10.094 0.732c0.347 0.025 0.555 0.025 0.658 0.127 0.028 0.049 0.162 0.138 0.176 0.393l0.059 0.527c0.012 0.271 0.179 0.347 0.306 0.34 0.27 0.004 0.272-0.25 0.287-0.455l0.2-2.744c0.016-0.237 0.072-0.567-0.229-0.573-0.159 0.004-0.29 0.059-0.34 0.309l-0.131 0.498c-0.05 0.251-0.184 0.351-0.234 0.379-0.114 0.039-0.317 0.024-0.664-0.002l-10.096-0.715 0.1702-2.35c0.0169-0.236-0.0203-0.161 0.0547-0.314 0.0731-0.137 0.2691-0.201 0.4472-0.252l0.4439-0.205c0.179-0.066 0.613-0.178 0.623-0.525 0.006-0.25-0.188-0.31-0.387-0.311zm145.04 2.557l4.87 1.281-4.6 2.035-0.27-3.316zm0.36 29.678c-0.3 0.03-0.57 0.23-0.68 0.53-0.14 0.41 0.06 0.86 0.47 1 0.41 0.15 0.92-0.13 1-0.53 0.11-0.44-0.09-0.83-0.49-0.96-0.1-0.03-0.2-0.04-0.3-0.04zm-8.61 1.09l-1.88 4.54 1.38 1.13c0.14 0.11 0.29 0.07 0.37-0.04 0.14-0.18-0.07-0.39-0.2-0.61l-0.17-0.31c-0.14-0.23-0.31-0.51-0.32-0.62 0-0.14 0.07-0.3 0.14-0.49l1.02-2.46 5.99 6.75 0.4-0.97-6.73-6.92zm-125.79 0.19c-0.698-0.02-1.415 0.12-2.088 0.39-2.173 0.9-3.718 3.03-2.725 5.43 0.89 2.15 3.55 2.78 5.743 1.87 2.193-0.9 3.656-2.99 2.693-5.32-0.648-1.57-2.088-2.33-3.623-2.37zm0.412 0.84c1.19 0.02 2.284 0.52 2.775 1.71 0.757 1.83-0.628 3.42-2.625 4.25-1.726 0.71-4.082 0.72-4.869-1.18-0.813-1.97 0.616-3.54 2.58-4.36 0.675-0.27 1.425-0.43 2.139-0.42zm121.98 6.76l-0.29 0.52 3.48 6.75 0.5 0.28 1.96-3.51 1.67 0.93 0.37-0.68-1.67-0.93 0.54-0.97-0.66-0.37-0.55 0.97-5.35-2.99zm-116.66 0.16c-0.02 0-0.04 0.01-0.062 0.02-0.097 0.06-0.123 0.13-0.086 0.3l0.088 0.35c0.037 0.11 0.082 0.26 0.06 0.31-0.023 0.09-0.155 0.16-0.369 0.28l-5.717 3.35c-0.213 0.13-0.333 0.21-0.435 0.19-0.037-0.01-0.138-0.12-0.225-0.2l-0.263-0.25c-0.125-0.13-0.216-0.13-0.303-0.07-0.188 0.12-0.026 0.35 0.076 0.53l0.848 1.44c0.108 0.18 0.231 0.44 0.431 0.33 0.087-0.05 0.126-0.13 0.084-0.29l-0.093-0.36c-0.029-0.12-0.073-0.26-0.065-0.29 0.028-0.11 0.166-0.16 0.379-0.29l2.494-1.46 0.494 0.84-2.359 3.85 0.633 1.08c0.08 0.13 0.197 0.31 0.347 0.21 0.136-0.08 0.101-0.23 0.057-0.35l-0.111-0.45c-0.042-0.16-0.03-0.3 0-0.38 0.067-0.13 0.118-0.2 0.201-0.33l1.805-2.99c0.011 0.02 1.458 1.22 2.941 0.39 0.813-0.44 1.721-1.65 0.805-3.21l-1.293-2.2c-0.095-0.16-0.216-0.37-0.362-0.35zm117.45 1.17l4.19 2.34-1.54 2.76-2.65-5.1zm-116.85 0.51l0.514 0.88c0.649 1.1 0.112 1.9-0.715 2.42-0.971 0.64-2.127 0.34-2.656-0.56l-0.461-0.79 3.318-1.95zm112.79 5.18c-0.68-0.05-1.37 0.23-1.82 0.82-0.71 0.94-0.52 2.36 0.45 3.08 0.71 0.54 1.63 0.55 2.29 0.24-0.14 0.88 0.06 1.99 0.94 2.65 1.06 0.81 2.79 0.6 3.65-0.55 0.89-1.19 0.62-2.95-0.62-3.77-0.9-0.58-1.87-0.52-2.8-0.01 0.06-0.82-0.2-1.53-0.9-2.04-0.36-0.26-0.77-0.4-1.19-0.42zm-0.4 0.74v0.01c0.35 0 0.73 0.15 1.05 0.37 0.66 0.45 1.12 1.27 0.67 1.96-0.44 0.68-1.46 0.63-2.12 0.15-0.66-0.47-1.03-1.4-0.56-2.01 0.26-0.35 0.6-0.48 0.96-0.48zm-108.93 0.88c-1.099-0.04-2.241 0.36-3.19 1.1-2.21 1.74-2.613 4.11-1.166 5.89 1.062 1.34 2.539 1.57 2.573 1.56l1.738-1.36 0.508 0.31c0.141 0.09 0.297 0.25 0.426 0.12 0.154-0.15 0.046-0.25-0.038-0.35l-1.216-1.57c-0.104-0.13-0.24-0.27-0.391-0.15-0.167 0.12 0.019 0.43 0.107 0.69l0.084 0.22-1.666 1.3c-0.495-0.01-1.259-0.52-1.724-1.09-1.388-1.69-0.197-3.68 1.396-4.84 1.7-1.24 3.795-1.72 5.045-0.02 0.661 0.88 0.68 1.45 0.483 1.75l-0.53 0.78c-0.078 0.12-0.103 0.25-0.029 0.37 0.086 0.14 0.224 0.12 0.33 0.04l1.057-0.83c0.009-0.79-0.27-1.58-0.864-2.36-0.778-1.04-1.834-1.52-2.933-1.56zm112.45 1.22c0.48 0.01 0.98 0.19 1.4 0.5 0.76 0.55 1.23 1.45 0.56 2.45-0.65 0.95-1.75 0.94-2.63 0.3-0.93-0.71-1.25-1.86-0.57-2.67 0.32-0.4 0.77-0.58 1.24-0.58zm-8.3 2.56c-0.04 0-0.08 0.03-0.13 0.07-0.12 0.12-0.01 0.51-0.11 1.02-0.15 0.72-0.58 1.09-0.4 1.26 0.08 0.06 0.18 0.06 0.3-0.08l0.51-0.58 0.23-0.26 0.37 0.26 4.54 3.97c0.19 0.17 0.35 0.29 0.38 0.38-0.01 0.04-0.08 0.17-0.11 0.28l-0.15 0.33c-0.04 0.12-0.05 0.22 0.01 0.29 0.13 0.15 0.29-0.1 0.42-0.24l1.1-1.26c0.13-0.15 0.36-0.35 0.18-0.45-0.09-0.05-0.12-0.04-0.29 0.04l-0.28 0.17c-0.11 0.05-0.24 0.13-0.28 0.14-0.09-0.01-0.24-0.15-0.42-0.31l-5.58-4.87c-0.06-0.06-0.16-0.18-0.28-0.16h-0.01zm-95.928 3.99l-7.26 3.55c-0.253 0.11-0.5 0.25-0.611 0.25-0.04 0.01-0.177-0.06-0.264-0.12l-0.311-0.18c-0.152-0.08-0.208-0.08-0.295 0-0.165 0.13 0.034 0.3 0.155 0.42l1.205 1.18c0.049 0.06 0.249 0.21 0.344 0.07 0.062-0.08 0.036-0.2-0.053-0.35l-0.121-0.23c-0.065-0.1-0.107-0.25-0.035-0.3 0.094-0.1 0.159-0.13 0.38-0.23l1.559-0.79 2.25 2.21-0.811 1.74c-0.046 0.11-0.053 0.2-0.156 0.29-0.174 0.14-0.609-0.43-0.83-0.22-0.158 0.15-0.045 0.24 0.051 0.34l1.396 1.37c0.105 0.1 0.228 0.3 0.385 0.11 0.173-0.24-0.326-0.64-0.289-0.93 0.023-0.15 0.11-0.29 0.195-0.47l3.405-7.43-0.289-0.28zm-1.006 1.15l-1.762 3.73-1.945-1.91 3.707-1.82zm91.214 0.58c-0.06-0.02-0.11 0.03-0.15 0.07l-0.73 0.61c-0.08 0.07-0.18 0.15-0.11 0.24 0.01 0.03 0.06 0.05 0.15 0.01l0.16-0.07c0.06-0.03 0.12-0.06 0.14-0.05 0.05 0 0.08 0.04 0.16 0.14l0.96 1.14-1.49 1.26-1.01-1.2c-0.04-0.04-0.06-0.08-0.06-0.11s0.04-0.1 0.07-0.14l0.11-0.15c0.04-0.08 0.05-0.13 0.02-0.17-0.07-0.08-0.14-0.02-0.19 0.03l-0.72 0.61c-0.08 0.06-0.18 0.15-0.12 0.23 0.02 0.03 0.06 0.06 0.15 0.02l0.16-0.07c0.06-0.03 0.12-0.06 0.15-0.06 0.04 0 0.07 0.05 0.15 0.15l2.15 2.54c0.09 0.1 0.14 0.15 0.14 0.2-0.01 0.02-0.03 0.1-0.07 0.14l-0.09 0.14c-0.04 0.08-0.04 0.11-0.02 0.15 0.06 0.1 0.17-0.02 0.24-0.08l0.64-0.54c0.09-0.08 0.23-0.19 0.15-0.26-0.04-0.03-0.06-0.05-0.17 0.01l-0.16 0.08c-0.06 0.03-0.13 0.05-0.15 0.04-0.06 0-0.09-0.06-0.18-0.16l-0.98-1.15 1.49-1.26 1.02 1.2c0.04 0.06 0.1 0.1 0.09 0.15 0 0.02-0.02 0.1-0.06 0.14l-0.09 0.15c-0.04 0.07-0.04 0.11-0.01 0.14 0.05 0.1 0.16-0.02 0.23-0.08l0.64-0.54c0.09-0.07 0.23-0.18 0.15-0.25-0.04-0.04-0.06-0.06-0.17 0l-0.17 0.08c-0.05 0.03-0.12 0.05-0.15 0.05-0.04 0-0.09-0.06-0.17-0.16l-2.15-2.55c-0.08-0.09-0.12-0.13-0.12-0.18 0-0.02 0.05-0.08 0.08-0.13l0.11-0.15c0.04-0.08 0.09-0.12 0.04-0.18-0.02-0.02-0.04-0.03-0.06-0.03zm-86.499 1.89c-0.023 0-0.046 0.02-0.071 0.05-0.067 0.09-0.087 0.1 0.028 0.28l0.175 0.28c0.072 0.11 0.134 0.19 0.155 0.28 0.029 0.15-0.057 0.26-0.205 0.46l-3.953 5.31c-0.229 0.3-0.284 0.32-0.387 0.33-0.048 0-0.196-0.02-0.309-0.08l-0.324-0.13c-0.162-0.06-0.227-0.01-0.299 0.04-0.152 0.17 0.109 0.31 0.272 0.43l1.343 1c0.136 0.1 0.326 0.24 0.442 0.05 0.055-0.11-0.001-0.22-0.156-0.41l-0.176-0.22c-0.061-0.08-0.113-0.16-0.112-0.26-0.006-0.1 0.079-0.22 0.227-0.42l3.652-4.9-0.142 8.95 0.271 0.2 4.59-6.16c0.148-0.2 0.266-0.34 0.367-0.36 0.061-0.03 0.185-0.01 0.28 0.04l0.359 0.15c0.169 0.06 0.235 0.07 0.305-0.01 0.137-0.16-0.007-0.25-0.161-0.37l-1.578-1.17c-0.098-0.08-0.197-0.1-0.267-0.02-0.141 0.13 0.001 0.28 0.099 0.41l0.204 0.23c0.05 0.07 0.111 0.16 0.136 0.22 0.043 0.07-0.022 0.18-0.09 0.27l-3.642 4.89 0.133-8.56-0.983-0.73c-0.036-0.03-0.075-0.06-0.117-0.07-0.021-0.01-0.044-0.01-0.066 0zm82.689 1.21l-2.41 1.78 0.24 0.52c0.04 0.08 0.11 0.18 0.2 0.12 0.11-0.07 0.06-0.23 0.05-0.3l-0.03-0.16c-0.02-0.07-0.03-0.14-0.01-0.19 0.04-0.05 0.02-0.03 0.09-0.08l0.62-0.46 2.14 2.9c0.08 0.1 0.13 0.15 0.12 0.2 0 0.02 0 0.08-0.06 0.14l-0.13 0.14c-0.07 0.07-0.05 0.13-0.02 0.16 0.06 0.08 0.13 0.02 0.19-0.03l0.78-0.58c0.07-0.05 0.17-0.11 0.11-0.19-0.04-0.04-0.09-0.07-0.17-0.02l-0.16 0.08c-0.08 0.04-0.14 0.03-0.16 0.02-0.03-0.02-0.08-0.08-0.15-0.18l-2.15-2.89 0.68-0.5c0.06-0.05 0.03-0.04 0.09-0.06 0.06-0.01 0.12 0.03 0.18 0.07l0.15 0.07c0.06 0.03 0.19 0.12 0.29 0.05 0.09-0.08 0.01-0.17-0.06-0.23l-0.42-0.38zm-3.7 2.95l-3 1.85 1.09 3.65c0.05 0 2.9-2.09 4.33 0.05 0.65 0.98 0.41 2.37-0.59 3.05-0.94 0.64-2 0.01-1.92 0.45 0.1 0.57 1.61 0.53 2.36 0.06 1.41-0.87 1.75-2.82 0.83-4.18-1.43-2.15-3.92-1.02-4.63-0.47l-0.65-2.26 2.34-1.44-0.16-0.76zm-70.808 1.64c-0.041 0.01-0.077 0.04-0.105 0.08-0.057 0.1-0.036 0.17 0.072 0.3l0.26 0.27c0.086 0.07 0.194 0.18 0.191 0.23 0.025 0.09-0.058 0.21-0.183 0.42l-3.346 5.73c-0.125 0.21-0.189 0.34-0.287 0.37-0.031 0.01-0.174-0.03-0.287-0.06l-0.362-0.09c-0.158-0.04-0.248 0-0.298 0.08-0.104 0.2 0.149 0.32 0.324 0.43l1.457 0.85c0.175 0.1 0.406 0.26 0.529 0.07 0.051-0.08 0.044-0.18-0.07-0.3l-0.26-0.27c-0.08-0.08-0.189-0.19-0.197-0.22-0.015-0.08 0.064-0.22 0.189-0.43l3.344-5.72c0.125-0.22 0.177-0.31 0.254-0.33 0.042-0.02 0.208-0.02 0.322 0.01l0.361 0.09c0.164 0.04 0.243 0.02 0.299-0.08 0.093-0.18-0.151-0.32-0.326-0.43l-1.457-0.85c-0.131-0.07-0.3-0.17-0.424-0.15zm63.458 2.66c-0.31 0.02-0.65 0.1-1.02 0.26-1.21 0.53-1.76 2.15-1.33 3.12 0.08 0.17 0.16 0.32 0.31 0.26 0.17-0.06 0.1-0.2 0.12-0.34 0.06-0.71 0.2-1.8 1.07-2.25 0.99-0.51 1.84 0.15 2.12 0.77 0.42 0.97 0.1 2.05-0.13 3.28-0.32 1.58-0.99 3.69-1.11 3.95l0.27 0.57 4.47-2.14-0.23-1.46c-0.03-0.22-0.04-0.37-0.11-0.55-0.06-0.11-0.21-0.19-0.31-0.15-0.16 0.11-0.25 0.41-0.29 0.69l-0.07 0.57c-0.01 0.18-0.04 0.31-0.13 0.46-0.09 0.12-0.16 0.21-0.31 0.28l-2.61 1.24c0.4-1.2 0.74-1.91 1.08-3.13 0.4-1.44 0.86-3.03 0.24-4.09-0.46-0.8-1.1-1.38-2.03-1.34zm-58.229 0.14l-0.633 0.94c-0.091 0.15-0.18 0.37-0.066 0.44 0.19 0.13 0.444-0.1 0.568-0.18l0.266-0.2c0.117-0.09 0.249-0.19 0.349-0.2 0.142 0.02 0.484 0.19 0.627 0.25l1.942 0.9-7.901 5.51 4.721 2.18 0.762-0.88c0.17-0.18 0.423-0.44 0.146-0.61-0.221-0.14-0.582 0.24-0.711 0.3l-0.295 0.19c-0.143 0.09-0.286 0.16-0.402 0.15-0.131-0.01-0.453-0.15-0.606-0.22l-2.269-1.04 7.857-5.53-4.355-2zm6.238 2.75c-0.102-0.01-0.188 0.02-0.227 0.12-0.03 0.1-0.008 0.18 0.139 0.27l0.301 0.2c0.093 0.08 0.236 0.15 0.244 0.2 0.054 0.09 0.001 0.18-0.078 0.42l-2.033 6.33c-0.076 0.24-0.107 0.41-0.205 0.46-0.032 0.02-0.193 0.01-0.307 0l-0.363-0.02c-0.178 0.01-0.233 0.03-0.264 0.13-0.058 0.22 0.216 0.28 0.42 0.35l4.637 1.49 0.769-1.29c0.081-0.1 0.145-0.27-0.015-0.36-0.183-0.09-0.474 0.19-0.573 0.28l-0.484 0.4c-0.084 0.08-0.1 0.13-0.277 0.17-0.09 0.02-0.115 0.02-0.276-0.03l-2.185-0.7c-0.075-0.03-0.143-0.11-0.155-0.15-0.007-0.08 0.038-0.22 0.114-0.46l0.945-2.94 2.068 0.66c0.161 0.05 0.303 0.09 0.393 0.17 0.094 0.08 0.045 0.2 0.043 0.31l-0.016 0.31c-0.008 0.14 0.012 0.33 0.155 0.33 0.1 0.02 0.169-0.02 0.197-0.1l0.599-1.87c0.039-0.12 0.023-0.25-0.074-0.28-0.146-0.06-0.23 0.09-0.31 0.19l-0.209 0.28c-0.067 0.1-0.103 0.18-0.213 0.23-0.117 0.03-0.248-0.05-0.387-0.09l-2.078-0.67 1.086-3.37 2.303 0.74c0.171 0.05 0.299 0.09 0.382 0.17 0.047 0.04 0.058 0.18 0.059 0.29l0.018 0.31c0.015 0.17-0.017 0.39 0.179 0.44 0.279 0.09 0.298-0.41 0.356-0.63l0.174-0.76-4.532-1.46c-0.101-0.03-0.218-0.07-0.32-0.07zm38.061 2.21c-0.17 0.01-0.33 0.03-0.5 0.07l-2.37 0.55c-0.197 0.04-0.465 0.08-0.427 0.29 0.022 0.1 0.062 0.17 0.236 0.18l0.375 0.02c0.114-0.01 0.268 0 0.309 0.03 0.083 0.06 0.102 0.2 0.158 0.44l1.499 6.47c0.06 0.24 0.11 0.38 0.06 0.46-0.03 0.06-0.16 0.11-0.26 0.18l-0.332 0.18c-0.154 0.08-0.162 0.15-0.139 0.25 0.06 0.21 0.301 0.13 0.511 0.08l2.54-0.59c1.5-0.35 2.5-1.54 2.18-3.19-0.29-1.45-1.75-1.81-2.34-1.74 0.17-0.18 1.07-0.92 0.71-2.19-0.24-0.83-1.09-1.54-2.21-1.49zm-30.784 0.03c-0.077 0.01-0.132 0.05-0.16 0.17-0.022 0.12 0.034 0.19 0.192 0.27l0.328 0.15c0.105 0.05 0.24 0.12 0.267 0.16 0.043 0.08 0.017 0.22-0.029 0.48l-1.187 6.48c-0.047 0.26-0.081 0.44-0.139 0.51-0.029 0.03-0.18 0.05-0.299 0.07l-0.385 0.04c-0.163 0.01-0.215-0.01-0.258 0.1-0.091 0.24 0.263 0.25 0.473 0.29l2.613 0.48c2.059 0.38 4.34-0.66 4.934-3.59 0.401-1.94-0.704-4.59-3.172-5.04l-2.879-0.53c-0.122-0.02-0.221-0.05-0.299-0.04zm30.724 0.5c0.65 0 1.21 0.51 1.38 1.22 0.19 0.83-0.02 1.76-0.96 1.97l-1.11 0.26-0.731-3.15 1.131-0.27c0.1-0.02 0.19-0.03 0.29-0.03zm-29.183 0.26l1.438 0.26c2.014 0.37 2.823 2.58 2.408 4.47-0.594 2.75-2.266 3.51-4.223 3.14l-0.664-0.12c-0.1-0.02-0.172-0.06-0.228-0.13-0.048-0.05-0.108-0.1-0.096-0.16l1.365-7.46zm23.498 0.3l-4.728 0.52c-0.213 0.03-0.492 0.06-0.481 0.27 0.012 0.1 0.064 0.16 0.237 0.19l0.357 0.06c0.117 0.03 0.275 0.04 0.303 0.08 0.086 0.06 0.075 0.16 0.103 0.42l0.727 6.61c0.027 0.25 0.067 0.41-0.002 0.5-0.018 0.03-0.172 0.09-0.281 0.12l-0.336 0.14c-0.162 0.07-0.201 0.12-0.19 0.22 0.037 0.23 0.313 0.17 0.526 0.15l4.842-0.53 0.175-1.49c0.032-0.13 0.023-0.31-0.16-0.32-0.205-0.02-0.355 0.36-0.41 0.48l-0.277 0.56c-0.045 0.11-0.04 0.17-0.186 0.27-0.073 0.06-0.096 0.07-0.263 0.09l-2.282 0.25c-0.078 0.01-0.173-0.04-0.199-0.07-0.042-0.07-0.058-0.22-0.086-0.47l-0.338-3.07 2.158-0.24c0.168-0.02 0.313-0.04 0.43 0 0.117 0.03 0.121 0.16 0.166 0.27l0.11 0.28c0.048 0.13 0.146 0.3 0.275 0.24 0.099-0.02 0.149-0.09 0.139-0.18l-0.213-1.94c-0.014-0.12-0.083-0.24-0.184-0.23-0.157 0-0.172 0.18-0.203 0.31l-0.076 0.33c-0.022 0.12-0.024 0.21-0.106 0.3-0.093 0.08-0.241 0.06-0.386 0.07l-2.17 0.24-0.387-3.52 2.404-0.27c0.179-0.02 0.313-0.03 0.418 0 0.059 0.02 0.129 0.15 0.174 0.24l0.145 0.28c0.084 0.15 0.141 0.36 0.341 0.33 0.291-0.03 0.102-0.5 0.067-0.72l-0.153-0.77zm-11.992 0.65c-0.202 0-0.484 0-0.496 0.21 0 0.1 0.033 0.17 0.213 0.21l0.348 0.11c0.101 0.03 0.259 0.06 0.293 0.11 0.067 0.07 0.056 0.17 0.054 0.42l-0.019 6.64c-0.001 0.26 0.009 0.43-0.059 0.51-0.033 0.03-0.191 0.07-0.293 0.09l-0.347 0.1c-0.18 0.06-0.215 0.1-0.215 0.2 0.01 0.23 0.291 0.2 0.494 0.21h1.812c0.147 0 0.349-0.02 0.338-0.19 0-0.13-0.044-0.19-0.213-0.24l-0.427-0.1c-0.079-0.02-0.159-0.06-0.192-0.09-0.033-0.08-0.022-0.22-0.021-0.48l0.01-3.1 2.037 0.01c0.168 0 0.325-0.01 0.437 0.05 0.112 0.05 0.123 0.15 0.156 0.27l0.045 0.31c0.033 0.14 0.124 0.28 0.27 0.27 0.112 0 0.146-0.11 0.146-0.21l0.006-1.92c0-0.11-0.01-0.25-0.156-0.23-0.146 0.01-0.193 0.1-0.238 0.27l-0.08 0.32c-0.046 0.14-0.068 0.24-0.17 0.31-0.09 0.04-0.259 0.03-0.416 0.03l-2.035-0.01 0.009-3.55 2.34 0.01c0.113 0 0.316 0 0.406 0.04 0.057 0.01 0.111 0.15 0.145 0.26l0.1 0.3c0.045 0.15 0.123 0.37 0.326 0.36 0.258-0.01 0.147-0.5 0.136-0.72l-0.076-0.77-4.668-0.01zm18.697 2.4c1.15-0.08 1.71 0.57 1.98 1.54 0.27 1.09-0.14 2.2-1.47 2.5l-0.71 0.16c-0.15 0.04-0.3 0.09-0.42-0.01-0.07-0.06-0.1-0.1-0.12-0.18l-0.86-3.68 1.07-0.24c0.19-0.05 0.36-0.07 0.53-0.09zm6.73 1.27c-0.05 0.01-0.1 0.02-0.16 0.03-0.4 0.12-0.65 0.55-0.53 0.96 0.11 0.42 0.65 0.68 1.02 0.51 0.41-0.18 0.62-0.56 0.49-0.96-0.11-0.36-0.46-0.57-0.82-0.54z" transform="matrix(.99999 0 0 .99999 -.00031280 0)" stroke-width=".21875"/><path d="m5.5048 85.955c0-44.496 36.071-80.569 80.569-80.569 44.496 0 80.569 36.071 80.569 80.569 0 44.496-36.071 80.569-80.569 80.569-44.496 0-80.569-36.071-80.569-80.569z" stroke-width=".3125" fill="none"/></g><path d="m81.631 39.357c-0.969-0.007-1.893 0.466-2.688 1.723-0.171 0.358-0.255 0.74-0.3 1.131 0.012 0.532-0.005 1.139-0.077 1.744-0.031 0.668-0.13 1.304-0.517 1.838-0.293 0.522-0.72 0.902-1.344 0.994-0.024 0.004-0.045 0.002-0.068 0.004-0.042 0.022 0.309-0.036 0.398 0.682 0.217 1.747 1.811 2.525 2.354 4.052 0.428 1.205 0.637 2.484 0.683 3.776 0.176 0.619 0.395 1.229 0.842 1.637 0.669 0.608 1.857 0.749 2.525 0.052-0.153-0.938-0.225-1.866-0.968-2.695-0.11-0.123-0.015-0.425-0.114-0.535 0.824 0.92 1.049 2.092 1.198 3.281 0.276 2.215 3.249 3.166 4.304 1.16-0.3-0.981-0.636-1.836-1.373-2.633-0.111-0.12-0.016-0.427-0.115-0.535 0.571 0.618 1.008 1.288 1.25 2.098 0.098 0.328 0.18 0.66 0.277 0.98 0.047-0.096 0.094-0.191 0.131-0.3-0.047 0.139 0.167 0.38 0.114 0.535-0.026 0.075-0.059 0.141-0.09 0.211 0.159 0.37 0.381 0.703 0.763 0.949 1.62 1.04 3.052 0.438 3.311-1.475-0.022 0.163 0.137 0.362 0.113 0.535-0.244 1.806-1.738 2.671-3.31 1.473-0.528-0.402-0.744-0.76-0.926-1.371-0.897 1.774-3.499 1.412-4.244-0.42-0.097-0.237-0.161-0.475-0.215-0.715-0.739 0.758-2.179 0.534-2.74-0.332-0.36-0.555-0.549-1.176-0.733-1.801 0.054 1.866-0.232 3.759-0.756 5.504-0.416 1.387-0.868 2.765-1.412 4.108-0.196 0.486-0.387 0.979-0.617 1.451-0.266 0.544-0.79 0.642-1.06 1.142 0.065-0.12 0.316-0.207 0.492-0.191 0.001-0.001 0.002-0.003 0.004-0.004 0.131-0.194 0.507 0.026 0.705 0.301 0.001-0.003 0.005-0.005 0.006-0.008-0.002 0.004-0.001 0.01-0.002 0.014 0.037 0.053 0.067 0.107 0.088 0.162 1.109 0.707 2.399 1.352 3.73 0.23 0.096-0.081 0.47-0.259 0.586-0.129 1.46 1.649 3.523 2.176 5.291 0.372 0.102-0.105 0.453-0.239 0.586-0.129 1.966 1.609 4.199 1.938 6.217 0.007 0.112-0.106 0.442-0.232 0.588-0.128 1.585 1.137 3.652 1.784 5.103-0.366 0.332-0.492 0.419-0.467 0.959-0.769 0.11-0.062 0.36-0.145 0.48-0.061 0.03 0.02 0.06 0.042 0.1 0.063l-0.03-0.198c0-0.046 0.05-0.031 0.13 0.01-0.49-1.92-1.489-3.245-2.768-5.041-0.932-1.309-0.952-2.743-1.762-4.045-0.887-1.426-1.906-2.77-3.251-3.789-0.132-0.1 0.311-0.234 0.353-0.24 0.264-0.041 2.387-0.432 1.975-0.645-1.002-0.516-1.951-1.133-2.871-1.783-1.757-1.24-2.916-2.772-4.141-4.508-0.078-0.11 0.404-0.222 0.451-0.222 4.886-0.035 1.087-1.447-0.734-2.779-1.639-1.199-4.406-4.353-6.881-4.372zm-6.682 1.317l-0.105 0.023c0.036-0.003 0.072-0.003 0.109-0.006-0.002-0.006-0.002-0.011-0.004-0.017zm0.801 0.156c-0.672-0.007-1.34 0.108-2.008 0.315-1.488 0.459-2.386 1.16-2.871 2.417 0.637-0.358 1.788-0.38 2.815-0.287 0.093-0.016 0.192-0.029 0.304-0.027 0.987 0.018 2.102 0.155 2.596 1.117 0.065 0.126-0.11 0.225-0.19 0.11-0.371-0.542-1.112-0.844-1.865-0.987-0.197-0.015-0.39-0.024-0.541-0.021-0.448 0.007-0.49 0.035-0.834 0.33-0.227 0.194-0.39 0.266-0.463 0.32l-0.037 0.035c-0.027 0.047 0.046 0.087 0.276 0.207 1.19 0.624 2.287 1.214 3.283 2.127 0.034 0.032 0.067 0.05 0.101 0.075 0.009-0.003 0.038-0.013 0.041-0.014 2.498-0.451 1.377-3.582 1.881-5.145-0.309-0.219-0.972-0.346-1.271-0.42-0.408-0.099-0.814-0.148-1.217-0.152zm0.531 3.182c0.006 0.004 0.012 0.009 0.018 0.013-0.006-0.004-0.012-0.009-0.018-0.013zm-3.836 0.34l-5.015 4.744c0.057 0.016 0.118 0.027 0.175 0.045 4.74 1.489 6.022 6.418 4.215 10.783-0.799 1.931-1.773 3.816-2.463 5.791-0.28 0.801-0.628 1.655-0.707 2.51-0.338 3.678 2.326 4.126 4.09 3.086 1.483-0.875 2.72-2.131 3.721-3.528-0.088 0.016-0.175 0.021-0.232 0-0.007-0.002-0.015-0.005-0.022-0.008-0.035-0.012-0.072-0.031-0.055-0.076 1.123-2.885 2.511-5.674 3.055-8.763 0.348-1.979 0.635-5.408-0.449-7.241-0.52-0.879-1.457-1.63-1.897-2.568-0.244-0.523-0.403-1.98-0.857-2.34-0.052-0.042-0.004-0.085 0.064-0.125-0.227-0.148-0.411-0.392-0.716-0.631-0.883-0.691-1.913-1.163-2.905-1.677l-0.002-0.002zm4.588 2.257c-0.046 0.029-0.094 0.052-0.142 0.069 0.043-0.019 0.081-0.038 0.142-0.069zm35.787 2.746c-1.79 0.021-3.63 0.595-4.7 2.143-2.12 3.048-1.27 6.375-0.04 9.6 0.98 2.568 2.39 5.412 1.97 8.228-0.11 0.704-0.55 1.368-1.15 1.852 4.28-1.529-0.38-9.313-0.97-11.996-0.58-2.632-0.23-5.961 2.42-7.381 3.55-1.9 8.27 0.246 11.32 2.22 5.58 3.606 9.11 9.214 10.69 15.602 0.38 1.546 0.69 3.111 0.94 4.686 0.01 0.009 0.01 0.018 0.02 0.027 0.07 0.143 0.05 0.414 0.1 0.518-0.02-0.033-0.03-0.066-0.05-0.098 0.95 6.313 0.9 12.803 0.18 19.119-0.1 0.857-0.22 1.707-0.35 2.551 0.05 0.022 0.1 0.047 0.16 0.066-0.04-0.014-0.12 0.05-0.2 0.143-0.86 5.155-2.43 10.085-4.33 14.965-0.64 3-1.29 6-1.93 9 3.24-7.07 6.18-14.41 7.28-22.1 0.95-6.719 1.33-13.607 0.69-20.375-0.68-7.217-2.11-14.945-7-20.598-3.49-4.039-8.77-7.742-14.29-8.148-0.25-0.018-0.51-0.027-0.76-0.024zm-46.529 0.457c-5.251 0.131-10.635 2.941-14.355 6.522-5.939 5.716-8.362 13.59-9.43 21.586-1.016 7.6-1.084 15.417-0.076 23.03 0.747 5.64 2.573 11.14 4.431 16.5 0.655 1.9 1.314 3.79 2.059 5.66-0.038-0.23-0.075-0.46-0.113-0.69-0.622-3.7-1.257-7.39-1.893-11.09-1.59-4.75-2.909-9.52-3.621-14.441-0.106 0.048-0.211 0.091-0.318 0.125 0.111-0.036 0.21-0.119 0.304-0.221-0.211-1.481-0.371-2.973-0.465-4.484-0.375-6.07-0.221-12.836 1.2-19.155-0.002-0.025 0-0.047 0.011-0.066 0.003-0.004 0.004-0.008 0.006-0.012 1.825-8.05 5.715-15.369 13.199-19.588 2.998-1.69 8.166-4.042 11.346-1.461 2.32 1.883 2.572 5.085 1.569 7.758-0.253 0.673-0.75 1.668-1.274 2.801 0.007 0.058 0.017 0.113 0.043 0.158-0.023-0.039-0.038-0.079-0.06-0.119-1.442 3.125-3.059 7.271-0.264 8.57-0.354-0.483-0.638-1.117-0.826-1.933-0.749-3.239 2.16-7.076 3.189-9.959 1.418-3.974 0.751-9.624-4.662-9.491zm-1.49 1.346c-1.588 0.063-3.205 0.565-4.629 1.145-6.556 2.667-11.664 8.237-14.117 14.84-0.631 1.697-1.149 3.433-1.578 5.191 1.719-2.839 3.84-5.794 6.63-7.6 1.466-0.948 3.003-1.701 4.553-2.494 0.493-0.251 1.97-0.78 2.113-1.437 0.349-1.6-2.531-1.496-2.834-2.918-0.176-0.832-0.242-1.801 0.934-2.016 2.58-0.471 5.158 0.43 7.748 0.264 1.748-0.113 1.704-0.849 1.817-2.547 0.04-0.616 0.733-1.112 1.345-0.998 0.808 0.151 0.948 0.742 1.09 1.451 0.552 2.745-0.65 5.468 0.926 8.172 0.016 0.027 0.021 0.058 0.029 0.09 0.282-0.604 0.542-1.16 0.713-1.578 1.396-3.422 1.401-8.757-3.297-9.489-0.253-0.039-0.508-0.064-0.765-0.076-0.226-0.01-0.451-0.009-0.678 0zm48.209 0.072c-1.72 0.046-3.26 0.705-4.25 2.395-1.63 2.786-0.69 5.684 0.4 8.504 1.01-1.681 1.13-3.777 1.26-5.688v-0.185c0-0.026-0.01-0.052-0.02-0.078-0.02-0.045 0-0.076 0.03-0.1 0.02-0.976-0.02-2.601 0.66-3.14 0.63-0.505 1.67-0.209 1.85 0.613 0.03 0.167 0.13 0.475 0.13 0.681 0.03 1.999 0.74 2.146 2.46 2.178s5.9-1.007 7.28 0.285c2.48 2.328-3.34 4.032-2.39 4.916 2.03 1.902 4.93 2.672 6.99 4.598 2.31 2.147 4.08 4.737 5.57 7.496-1.29-7.416-4.17-14.513-10.58-18.935-2.15-1.481-6.11-3.627-9.39-3.54zm-46.231 1.922c-2.078-0.009-0.387 3.358-2.384 3.487-0.182 0.011-0.367 0.006-0.549 0.007-1.428 4.517-2.706 9.115-3.66 13.754-0.898 4.362-1.264 8.855-1.104 13.325 0.289-0.298 0.569-0.557 0.625-0.532 0.305 0.139 0.922 0.173 1.273 0.1 0.092-0.18 0.22-0.42 0.385-0.723 0.178-0.47 0.347-0.94 0.485-1.424 0.026-0.091 0.332-0.427 0.646-0.748-0.017-3.475 0.221-6.935 1.008-10.388 1.074-4.713 2.547-9.366 4.275-13.879 0.005-0.014 0.017-0.018 0.026-0.027 0.041-1.455-0.008-2.8-0.557-2.903-0.174-0.033-0.33-0.048-0.469-0.049zm45.121 0.094v0.002c-0.63-0.002-0.95 0.407-1.08 1.123-0.1 0.573-0.16 1.168-0.21 1.768 1.52 4.72 2.82 9.592 3.6 14.494 0.51 3.277 0.57 6.524 0.4 9.769 0.19-0.115 0.39-0.246 0.6-0.402 0.01-0.006 0.02-0.011 0.03-0.018 0.22 0.974 0.49 2.339 1.19 3.092 0.24 0.26 0.91 0.432 1.45 0.535 0.36-4.431 0.19-8.909-0.52-13.275-0.73-4.503-1.69-8.979-2.83-13.396-0.78-0.215-1.35-0.612-1.47-1.325-0.14-0.781 0.17-2.161-0.88-2.34-0.1-0.017-0.19-0.027-0.28-0.027zm-53.441 2.951c-0.655-0.021-1.301 0.006-1.934 0.121-2.4 0.438-0.783 1.922 0.465 2.797 0.451 0.316 0.817 0.483 0.961 1.047 0.125 0.488 0.173 1.087-0.271 1.459-1.366 1.145-3.053 1.813-4.66 2.617-0.634 1.803-1.004 3.69-1.366 5.563-0.837 4.339-1.868 8.739-2.111 13.158-0.172 3.128-0.089 6.252 0.146 9.369l0.581-0.599c0.234 1.288 2.068-0.088 2.363-0.639 0.504-0.941 0.937-1.906 1.25-2.926 0.057-0.185 0.323-0.404 0.601-0.623l0.01-0.01c-0.194-3.67-0.226-7.413 0.385-11.039 1.137-6.757 2.639-13.718 4.959-20.189-0.462-0.049-0.923-0.091-1.379-0.106zm1.564 0.125c0.002 0.064-0.001 0.124-0.013 0.16-0.219 0.657-0.448 1.311-0.651 1.973-0.422 1.379-0.803 2.771-1.17 4.166-1.126 4.29-2.153 8.618-2.935 12.984-0.691 3.859-0.761 7.807-0.559 11.717l0.553-0.572c0.031 0.652 1.716 1.143 1.922 0.766 0.506-0.928 0.898-1.888 1.17-2.907 0.022-0.081 0.258-0.363 0.521-0.65-0.186-4.416 0.135-8.868 1.018-13.162 0.982-4.773 2.269-9.5 3.736-14.147-1.182-0.014-2.39-0.194-3.592-0.328zm50.537 0.391c-0.15 2.029-0.22 4.113-1.24 5.867 0.42 1.087 0.85 2.161 1.14 3.209 0.64 2.263 0.71 5.231-2.13 5.775-0.1 0.052-0.2 0.099-0.3 0.141-0.11 2.246-0.13 4.514-0.08 6.783 0.12-0.114 0.22-0.22 0.32-0.312l0.26-0.272c1.43 2.212 3.43 3.855 5.85 2.617 0.19-3.546 0.12-7.087-0.52-10.662-0.8-4.439-1.94-8.845-3.3-13.146zm-42.781 0.033c-1.637 4.333-3.069 8.801-4.066 13.32-0.743 3.373-0.987 6.732-0.988 10.106 0.251-0.247 0.476-0.455 0.492-0.442 1.714 1.49 4.021 1.648 5.457-0.335 0.054-0.075 0.288-0.297 0.539-0.536 0.005-0.005 0.009-0.01 0.014-0.015 0.177-2.263 0.277-4.529 0.291-6.778-0.226-0.131-0.439-0.3-0.635-0.504-3.664-1.195-1.569-6-0.127-9.099-0.49-0.929-0.773-1.892-0.981-2.928-0.106-0.527-0.042-1.649 0.004-2.789zm53.161 0.106c-0.59 0.02-1.43 0.112-2.33 0.191 0.17 0.603 0.34 1.204 0.49 1.811 0.38 1.539 0.72 3.09 1.04 4.644 0.89 4.384 1.71 8.807 2.22 13.254 0.43 3.734 0.27 7.533-0.13 11.271 0.2-0.203 0.4-0.406 0.59-0.609 0.27 1.079 2.1 6.094 3.96 5.803 0.41-3.093 0.65-6.203 0.61-9.317-0.05-4.433-0.79-8.868-1.41-13.252-0.26-1.896-0.53-3.805-1.07-5.646-1.66-0.82-4.11-1.882-4.58-3.131-0.12-0.347-0.22-0.754-0.24-1.129-0.06-0.955 1.94-1.453 2.51-1.871 1.54-1.126-0.14-1.968-1.27-2.019-0.11-0.005-0.25-0.005-0.39 0zm-6.17 0.152c1.24 4.818 2.33 9.72 3.01 14.648 0.55 3.949 0.64 7.994 0.32 11.998 0.26 0.046 0.48 0.077 0.48 0.075 0.28 1.196 1.51 5.213 3.41 4.474 0.4-3.788 0.62-7.663 0.15-11.449-0.83-6.639-2.09-13.213-3.76-19.688-1.24 0.104-2.58 0.163-3.61-0.058zm-31.331 0.037c0.005 0.031 0.011 0.061 0.016 0.092-0.014-0.041-0.016-0.067-0.016-0.092zm-30.699 7.344c-0.806 0.416-1.588 0.871-2.287 1.457-0.556 0.465-1.081 0.961-1.586 1.472-0.993 3.045-1.397 6.387-1.896 9.53-0.632 3.972-1.245 7.988-1.203 12.019 0.017 1.712 0.087 3.418 0.187 5.123 0.169-0.172 0.337-0.345 0.506-0.517 0.004-0.01 0.02-0.028 0.018-0.033 0.252 0.65 1.047 1.283 1.8 1.043-0.18 0.782-0.053 0.614 0.379-0.504 0.047-0.141 0.095-0.282 0.141-0.422 0.041-0.136 0.075-0.271 0.105-0.408 0.037-0.161 0.29-0.38 0.561-0.6-0.255-3.194-0.345-6.395-0.139-9.586 0.281-4.338 1.235-8.63 2.057-12.891 0.368-1.91 0.731-3.837 1.357-5.683zm72.43 0.761c0.54 1.887 0.8 3.845 1.07 5.784 0.59 4.29 1.36 8.641 1.37 12.98 0.01 3.103-0.24 6.192-0.63 9.264 0.03-0.011 0.06-0.027 0.09-0.041 0.15-0.158 0.31-0.317 0.46-0.475 0.11 0.609 0.26 1.338 0.62 1.852 0.27 0.384 0.66 1.012 1.22 1.002 0.8-0.232 0.97-0.075 0.49 0.468 0.04-0.08 0.26-0.313 0.51-0.56 0.21-1.799 0.38-3.601 0.48-5.412 0.23-3.891-0.11-7.79-0.52-11.658-0.36-3.404-0.57-7.018-1.51-10.327v-0.007c-0.84-0.907-1.77-1.722-2.8-2.399-0.21-0.144-0.52-0.304-0.85-0.471zm-24.44 2.483c-0.66-0.068-0.99 1.069-1.71 1.619-0.529 0.404-0.631 0.486-1.29 0.662-1.083 0.29-2.527-0.681-3.337-1.232-0.111-0.075-0.162-0.137-0.196-0.192-0.026 0.03-0.049 0.057-0.093 0.094-0.293 0.244-0.693 0.596-1.01 0.797-0.43 0.272-0.923 0.638-1.428 0.762-1.224 0.299-2.169-0.002-3.238-0.717-0.36-0.241-0.717-0.486-1.059-0.752-0.056 0.044-0.074 0.055-0.162 0.127-0.601 0.485-1.17 0.885-1.896 1.156-1.122 0.418-2.254-0.013-3.116-0.789-0.896-0.807-0.291-1.105-1.002-0.594-0.501 0.361-0.914 0.441-1.494 0.6-0.317 0.087-0.726 0.022-1.138-0.111-0.285 3.981-0.917 8.778 1.875 12.117 1.746 2.088 3.943 3.525 6.734 3.619 1.692 0.057 5.355 0.382 6.492-1.018 0.114-0.139 0.523-0.033 0.633-0.168-1.611 1.982-7.307 1.66-9.176 1.186-7.591-1.928-7.619-9.393-7.18-15.74 0.003-0.04 0.172-0.068 0.336-0.094-0.349-0.143-0.683-0.33-0.949-0.527-0.042 0.059-0.086 0.118-0.129 0.177-0.901 3.535-1.514 7.173-0.959 10.801 0.616 4.027 1.294 7.544 0.106 11.496 2.821 0.498 5.061 2.471 5.515 5.049 0.088-0.046 0.198 0.076 0.121 0.172-0.027 0.034-0.049 0.069-0.074 0.103 0.077 0.62 0.055 1.271-0.09 1.944-0.035 0.166-0.085 0.326-0.127 0.49 0.037 0.104 0.069 0.203 0.036 0.23-0.046 0.038-0.083 0.082-0.125 0.122-0.776 2.832-2.182 5.262-1.952 8.292 0.061 0.8 0.159 1.86-0.048 2.75-0.019 0.49 0.069 0.8 0.236 0.99 0.028-0.08 0.056-0.15 0.084-0.23-0.035 0.09 0.062 0.24 0.103 0.38 0.881 0.46 2.856-1.03 3.395-1.55 0.007 0.01 0.012 0.03 0.014 0.04 0.938 3.28 3.965 0.18 3.922 0.11 1.16 1.97 2.667 0.91 3.353-0.73 0.002 0 0.003 0.01 0.004 0.01 0.025 0.06 0.055 0.11 0.082 0.17 0.039 0.01 0.072 0.03 0.078 0.09l0.012 0.09c0.959 1.67 2.871 0.72 3.707-0.71-0.092-1.91 0.589-3.64-0.358-5.74-0.765-1.69-1.112-3.284-1.16-5.13-0.123-4.696 2.471-7.416 7.038-7.418 0.11-0.158 0.31-0.27 0.55-0.235 1.13 0.169 2.04 0.498 2.82 0.989 0.37-0.494 0.75-0.981 1.13-1.469-0.47-2.546-0.95-5.105-1.25-7.676-0.16-0.106-0.31-0.243-0.46-0.416-0.59 0.803-1.32 1.619-2.03 2.006-0.32 2.156-0.38 4.296 0.32 6.549 0.01 0.032-0.76-0.337-0.85-0.631-0.602-1.95-0.652-3.832-0.447-5.713-0.065-0.012-0.131-0.022-0.194-0.047 0.04 0.016 0.123-0.061 0.225-0.18 0.216-1.777 0.636-3.558 1.036-5.394 0.73-3.395 0.63-6.88 0.28-10.324-0.19-0.161-0.36-0.247-0.51-0.262zm-52.203 0.035c-1.677 1.767-3.088 3.768-4.334 5.875-1.318 6.009-1.573 12.275-1.195 18.381 0.097 1.563 0.261 3.106 0.477 4.633 0.257-0.37 0.502-0.819 0.859-0.932 0.49-0.154 0.566-0.383 0.789-0.793 0.051-0.094 0.323-0.349 0.604-0.611-0.113-1.891-0.187-3.782-0.186-5.68 0.002-3.936 0.587-7.863 1.213-11.742 0.486-3.007 0.871-6.192 1.773-9.131zm80.603 0.699c0.82 3.075 1.04 6.414 1.37 9.553 0.41 3.893 0.82 7.839 0.59 11.758-0.11 1.846-0.28 3.684-0.48 5.517 0.11-0.111 0.21-0.205 0.31-0.298 0.1-0.108 0.2-0.217 0.31-0.325 0.47 0.758 0.99 1.441 1.78 1.811 1.08-7.246 1.23-14.786 0.07-22.002 0-0.056-0.02-0.112-0.03-0.168-1.08-2.032-2.35-4.088-3.92-5.846zm-27.05 0.065c0.36 3.482 0.44 6.981-0.28 10.422-0.25 1.202-0.51 2.372-0.73 3.531 0.94 0.375 1.21-0.345 1.57-1.098 0.05-0.085 0.32-0.36 0.6-0.642-0.02-1.287 0.2-2.584 0.37-3.852 0.24-1.729 0.46-3.47 0.8-5.182 0.03-0.138 0.24-0.078 0.22 0.059-0.37 1.822-0.61 3.676-0.85 5.518-0.15 1.075-0.31 2.151-0.32 3.23 0.28-0.268 0.56-0.539 0.55-0.547 1.12 1.714 2.45 1.233 3.15-0.533 0.04-0.089 0.3-0.352 0.57-0.623-0.05-2.312-0.03-4.623 0.08-6.91-0.58 0.198-1.2 0.228-1.77 0.002-1.64-0.659-2.96-1.917-3.96-3.375zm-25.74 1.263c-0.011 0.012-0.021 0.026-0.031 0.038-0.862 0.949-1.994 1.781-3.159 2.277 0.243 1.703 0.381 3.427 0.518 5.14 0.098 1.212 0.248 2.455 0.18 3.678 0.164-0.168 0.327-0.337 0.492-0.506 0.031-0.037 0.093-0.1 0.09-0.107 0.227 0.536 0.894 2.042 1.656 2.492-0.137-1.018-0.308-2.051-0.481-3.117-0.534-3.303-0.042-6.65 0.735-9.895zm-3.397 2.403c-1.124 0.437-2.263 0.544-3.209 0.099-0.015 2.132-0.107 4.277-0.269 6.42 0.179-0.183 0.358-0.367 0.537-0.551 0.006-0.011 0.021-0.031 0.019-0.037 0.244 0.723 0.562 1.551 1.063 2.135 0.202 0.236 1.901 1.563 1.998 1.434 0.046-0.061 0.298-0.304 0.518-0.518 0.098-1.306-0.04-2.623-0.149-3.93-0.14-1.684-0.271-3.378-0.508-5.052zm-4.207 7.562c-1.635 1.855-3.738 3.369-5.998 2.131 0.041 1.905 0.145 3.817 0.28 5.74 0.176 0.157 0.335 0.356 0.347 0.465 0.207 1.9 3.707 0.32 4.412-0.31 0.091-0.082 0.221-0.067 0.35-0.008 0.409-2.369 0.729-4.774 0.959-7.19-0.133-0.277-0.251-0.554-0.35-0.828zm38.754 0.147c-1.03 1.517-2.56 3-3.89 2.379 0.33 2.537 0.78 5.062 1.24 7.58 1.99 0.917 4.16-0.223 3.4-2.584-0.01-0.04 0.02-0.044 0.07-0.026-0.26-2.297-0.44-4.62-0.53-6.949-0.1-0.13-0.19-0.266-0.29-0.4zm0.52 0.687c0.1 2.274 0.28 4.542 0.53 6.783 0.15 0.088 0.31 0.194 0.32 0.211 0.63 0.627 4.32 1.601 4.64-0.32 0.01-0.072 0.12-0.025 0.25 0.055 0.2-1.631 0.37-3.256 0.5-4.879-0.19-0.519-0.46-0.861-0.93-0.557-2.16 1.387-3.96 0.322-5.31-1.293zm-38.742 0.367c-0.232 2.332-0.546 4.654-0.944 6.942 0.195 0.165 0.342 0.409 0.28 0.572-0.537 1.411 1.585 2.515 2.738 2.039 0.097-0.04 0.203-0.007 0.303 0.049 0.64-2.674 1.293-5.36 1.769-8.068-0.132-0.266-0.226-0.481-0.301-0.655-0.154 0.142-0.313 0.276-0.474 0.391-1.511 1.075-2.643 0.054-3.371-1.27zm-6.795 0.772c-0.734 1.525-1.891 3.183-3.319 3.176-0.008 0.019-0.017 0.039-0.025 0.058 0.112 2.007 0.331 4.007 0.656 5.985 0.19 0.14 0.363 0.348 0.373 0.498-0.022-0.319 1.878-2.546 2.006-2.885 0.126-0.336 0.25-0.653 0.328-1.002 0.037-0.162 0.156-0.167 0.295-0.1-0.132-1.908-0.238-3.811-0.279-5.709-0.012-0.007-0.023-0.013-0.035-0.021zm11.103 1.068c-0.483 2.652-1.114 5.281-1.74 7.901 0.051 0.047 0.096 0.094 0.129 0.132 0.205 0.232 0.392 0.479 0.562 0.739 0.074 0.1 0.104 0.179 0.119 0.248 0.976-0.405 2.036-0.65 3.09-0.725 0.759-2.579 0.732-5.003 0.444-7.498-0.337 0.345-0.727 0.689-0.846 0.727-0.659 0.209-1.307-0.691-1.758-1.524zm40.854 0.209c-0.13 1.481-0.29 2.964-0.47 4.451 0.18 0.154 0.37 0.342 0.38 0.438 0.1 0.539 2.01 4.315 2.18 2.887 0.01-0.066 0.16-0.003 0.32 0.093 0.3-1.43 0.55-2.874 0.74-4.328-0.18-0.524-0.31-1.002-0.37-1.297 0.02 0.072-2.07-0.308-2.45-1.14-0.13-0.273-0.22-0.694-0.33-1.104zm-55.5 2.381c-0.414 0.839-0.937 1.61-1.618 2.33-0.376 0.399-1.635 1.338-2.519 1.438 0.151 2.424 0.348 4.893 0.881 7.257 2.737 1.039 3.57-3.694 3.603-5.414 0.004-0.195 0.122-0.23 0.268-0.183-0.289-1.791-0.496-3.605-0.615-5.428zm58.81 1.6c-0.19 1.351-0.42 2.693-0.7 4.021 0.17 0.137 0.33 0.297 0.33 0.406-0.06 1.66 0.26 6.005 2.98 5.059 0.07-0.023 0.19 0.041 0.32 0.129 0.56-2.112 0.87-4.321 1.12-6.496-0.11-0.349-0.2-0.669-0.28-0.953-0.13 0.108-0.27 0.214-0.37 0.293-1.59 1.226-2.75-0.746-3.4-2.459zm-63.4 2.125c-0.544 1.045-1.226 2.003-2.069 2.888-0.362 0.38-1.599 1.521-2.474 1.772 0.309 3.444 0.804 6.878 1.369 10.278 3.234-0.2 4.206-4.971 4.039-7.507-0.011-0.178 0.11-0.206 0.238-0.189-0.515-2.342-0.71-4.795-0.859-7.186-0.088-0.006-0.169-0.026-0.244-0.056zm67.61 1.472c-0.25 2.068-0.55 4.159-1.08 6.166 0.16 0.151 0.3 0.324 0.29 0.416-0.27 2.285 0.06 7.154 3.3 7.264 0.08 0 0.18 0.05 0.28 0.11 0.68-3.05 1.3-6.133 1.77-9.237-0.13-0.319-0.22-0.622-0.29-0.892-0.13 0.096-0.25 0.17-0.35 0.187-1.96 0.333-3.22-2.039-3.92-4.014zm-22.143 0.491c-2.014 0.055-4.654 0.576-5.553 2.472-0.391 0.826-0.666 1.742-0.826 2.692 0.276 0.426 0.462 0.785 0.603 1.283 0.294 1.033 0.524-0.219 0.571-0.449 0.186-0.667 0.137-1.294-0.149-1.877-0.004-0.011-0.008-0.055-0.012-0.076-0.03-0.146-0.059-0.289-0.089-0.434-0.002-0.003-0.004-0.014-0.006-0.016 0.775 0.373 1.354 1.024 1.675 1.813 0.826 2.027 0.868-1.758 0.622-2.354-0.006-0.013-0.012-0.071-0.018-0.103-0.028-0.136-0.056-0.271-0.084-0.406-0.002-0.004-0.003-0.017-0.006-0.018 0.97 0.39 1.709 1.254 2.119 2.203 0.326 0.754 0.476 0.363 0.6-0.281 0.182-0.951-0.186-1.492-0.551-2.272-0.005-0.011-0.009-0.057-0.014-0.08-0.029-0.144-0.06-0.287-0.089-0.431-0.002-0.003-0.004-0.013-0.006-0.014 0.987 0.495 1.946 1.046 2.596 1.957 0.2 0.269 0.43 1.364 0.65 0.375 0.24-1.105-0.15-1.558-0.76-2.35-0.02-0.032-0.04-0.146-0.05-0.259l-0.06-0.276c0.86 0.246 1.58 0.675 2.27 1.221 0.59 0.46 1.5 1.776 1.1-0.045-0.82-1.053-2.08-1.817-3.96-2.098-0.16-0.023-0.26-0.092-0.32-0.177-0.085 0-0.163-0.003-0.253 0zm-23.506 0.349c-0.045 0.017-0.09 0.029-0.131 0.03-1.867 0.004-3.629 0.635-4.943 1.73-0.097 0.322-0.133 0.649-0.104 0.982 0.042-0.236 0.164-0.418 0.369-0.548 0.328-0.271 0.665-0.547 1.02-0.78 0.57-0.373 1.161-0.664 1.82-0.843 0.115-0.032 0.171 0.103 0.107 0.183-0.756 0.973-1.366 1.987-0.666 3.252-0.158-0.285 0.235-0.92 0.416-1.123 0.687-0.769 1.566-1.278 2.487-1.725 0.101-0.049 0.198 0.05 0.15 0.151-0.511 1.07-0.977 1.89-0.564 3.103 0.257 0.756 0.116 0.113 0.394-0.351 0.517-0.865 1.124-1.653 2.098-2.016 0.077-0.029 0.161 0.06 0.135 0.135-0.311 0.899-0.511 1.713-0.235 2.674 0.259 0.902 0.193 0.967 0.567 0.002 0.287-0.741 0.968-1.386 1.685-1.711 0.077-0.035 0.199 0.023 0.16 0.123-0.408 1.049-0.482 1.979-0.046 3.066-0.122-0.302 0.396-1.101 0.689-1.502-0.378-2.538-2.735-4.305-5.361-4.726-0.022-0.004-0.036-0.048-0.047-0.106zm-2.137 0.791c-0.048-0.005-0.253 0.091-0.734 0.34-0.878 0.454-1.681 1.049-2.325 1.801-0.07 0.082-0.174 0.007-0.185-0.076-0.042-0.313-0.012-0.593 0.047-0.871-1.272 1.176-2.055 2.824-1.969 4.795 0.01 0.227 0.003 0.452-0.002 0.677 0.788-0.855 2.36-1.939 2.703-2.117-0.027 0.014 0.147 0.467 0.113 0.535-0.494 1.002-1.102 2.039-0.167 3.181 0.357 0.43 0.226-0.714 0.339-0.96 0.519-1.121 1.435-1.914 2.397-2.658 0.017 0.082 0.035 0.164 0.053 0.246 0.035 0.12 0.071 0.248 0.06 0.289-0.308 1.227-0.544 2.274 0.209 3.423 0.246 0.37 0.213-0.47 0.262-0.63 0.34-1.118 0.813-2.161 1.824-2.815-0.022 0.015 0.127 0.464 0.115 0.536-0.205 1.256-0.007 2.171 0.674 3.249 0.321 0.5 0.378-0.95 0.426-1.072 0.374-0.972 0.881-1.628 1.775-2.174l0.039 0.186c0.044 0.138 0.1 0.306 0.075 0.35-0.609 1.063-0.224 4.42 0.357 2.4 0.267-0.925 0.563-1.668 1.289-2.305 0.069-0.263 0.13-0.527 0.17-0.793 0.06-0.399 0.071-0.785 0.043-1.156-0.275 0.492-0.377 1.004-0.633 1.52-0.034 0.068-0.155 0.074-0.187 0-0.348-0.808-0.568-1.616-0.403-2.491 0.111-0.583 0.715-1.436-0.359-0.295-0.577 0.614-0.775 1.285-1.229 1.952-0.055 0.082-0.164 0.064-0.199-0.026-0.354-0.917-0.645-1.99-0.32-2.963 0.067-0.199 0.451-0.714-0.012-0.423-0.629 0.395-1.007 0.794-1.396 1.445-0.22 0.367-0.388 0.748-0.573 1.135-0.045 0.095-0.168 0.05-0.199-0.028-0.38-0.939-0.558-1.807-0.109-2.75 0.097-0.208 0.197-0.416 0.301-0.623 0.356-0.261 0.401-0.317 0.132-0.168-0.288 0.15-0.579 0.297-0.855 0.469-0.96 0.598-1.5 1.171-1.885 2.238-0.03 0.085-0.15 0.116-0.199 0.028-0.471-0.85-0.558-1.899 0.016-2.737 0.245-0.359 0.601-0.655 0.521-0.664zm27.246 0.604c0.64 1.032 0.93 2.156 0.28 3.357v-0.01c-0.52-1.449-1.53-2.156-2.823-2.822 0.546 1.24 0.784 2.177 0.188 3.637-0.002-0.003-0.003-0.005-0.004-0.008-0.518-1.135-1.113-2.254-2.293-2.781 0.168 0.497 0.287 1.023 0.26 1.543-0.032 0.592-0.14 2.574-0.743 1.631-0.544-0.853-0.802-1.628-1.73-2.114 0.336 1.124 0.34 2.14-0.186 3.348-0.002-0.003-0.002-0.007-0.004-0.01-0.302-0.647-0.435-1.254-0.861-1.896-0.071-0.109-0.051-0.277-0.072-0.412-0.15 0.914-0.195 1.858-0.125 2.787 0.522 0.444 0.947 0.978 1.135 1.651 0.87 3.13 1.324-0.646 0.793-1.739-0.006-0.012-0.008-0.05-0.012-0.07-0.03-0.147-0.061-0.294-0.092-0.442-0.002-0.002-0.003-0.012-0.006-0.014 0.91 0.569 1.568 1.328 1.805 2.385 0.539 2.41 1.271-2.324 1.191-2.855-0.004-0.013-0.004-0.025-0.002-0.037 1.014 0.669 1.529 1.76 1.821 2.902 0.09 0.37 0.1 0.85 0.44 0.23 0.58-1.079 0.52-2.02 0.23-3.218-0.02-0.063-0.03-0.369-0.08-0.405 1.14 0.903 2.18 1.843 2.52 3.283 0.03 0.12 0.06 0.24 0.07 0.37 0.04 0.29 0.68-1.176 0.66-1.016 0.1-0.797-0.05-1.524-0.46-2.18 0-0.012 0-0.059-0.01-0.084-0.03-0.142-0.06-0.286-0.09-0.429v-0.014c1.03 0.549 1.77 1.353 2.53 2.211 0.09-2.266-0.13-4.554-1.35-6.18 0.1 0.448 0.16 0.889 0.04 1.364-0.02 0.066-1.25-1.02-1.56-1.221-0.47-0.306-0.94-0.557-1.46-0.742zm-37.775 0.123s-1.103 1.329-1.018 3.109c0.085 1.781 1.328 3.817 1.328 3.817s0.822-2.629 0.737-3.789c-0.084-1.159-1.047-3.137-1.047-3.137zm-17.176 0.656c-0.008 0.014-0.009 0.021-0.025 0.041 0.007-0.013 0.018-0.028 0.025-0.041zm2.818 0.193c-0.886 1.306-2.178 2.632-3.185 2.317 0.317 4.452 0.783 8.892 1.037 13.352 2.926 0.05 3.17-2.88 3.564-5.28 0.015-0.09 0.117-0.12 0.194-0.12h0.058c-0.561-3.39-1.07-6.808-1.388-10.243-0.102 0.008-0.196 0.004-0.28-0.026zm45.08 0.909c0.009 0.017 0.016 0.036 0.024 0.072-0.009-0.024-0.015-0.048-0.024-0.072zm-49.074 0.638c-0.519 0.636-1.121 1.221-1.765 1.573 0.646 4.459 1.761 8.779 3.144 13.089-0.019-0.11-0.039-0.22-0.058-0.34-0.021-0.12 0.082-0.22 0.201-0.21 0.036 0.01 0.067 0.01 0.103 0.01-0.258-4.5-0.747-8.98-1.064-13.469-0.205-0.13-0.395-0.342-0.561-0.653zm81.377 0.276c-0.47 3.04-1.06 6.066-1.72 9.066 0.17 0.14 0.31 0.31 0.32 0.44 0.23 2.11 0.23 5 2.99 4.92 0.05-0.01 0.13 0.02 0.21 0.07 0.51-4.5 1.24-8.97 1.78-13.457-0.1-0.14-0.19-0.287-0.29-0.436-0.19 0.172-0.38 0.34-0.55 0.5-1.2 1.103-2.18 0.061-2.74-1.103zm-67.226 0.644s-0.508 2.345-0.198 3.674c0.311 1.328 1.612 3.078 1.612 3.078s0.649-2.26 0.451-3.926c-0.198-1.667-1.865-2.826-1.865-2.826zm70.996 0.637c-0.55 4.455-1.26 8.895-1.76 13.355 0.17 0.12 0.33 0.27 0.38 0.39 1.55-3.98 2.95-8.06 3.67-12.255 0.07-0.436 0.14-0.875 0.21-1.314-0.32 0.441-0.72 1.042-0.93 0.976-0.67-0.213-1.16-0.636-1.57-1.152zm-59.073 0.678c-0.985 0.613-1.8 1.468-2.421 2.447-0.068 0.68-0.163 1.36-0.237 2.05-0.06 0.57-0.078 1.1-0.064 1.62 0.731-0.74 2.053-1.66 2.34-1.81-0.027 0.01 0.147 0.46 0.113 0.53-0.431 0.88-0.976 1.8-0.162 2.79 0.319 0.38 0.202-0.64 0.304-0.86 0.463-1 1.28-1.71 2.139-2.37 0.017 0.08 0.035 0.16 0.053 0.24 0.035 0.12 0.071 0.25 0.06 0.29-0.271 1.08-0.49 1.99 0.174 3 0.219 0.34 0.191-0.42 0.235-0.56 0.304-1 0.726-1.93 1.629-2.52-0.011 0.01 0.02 0.13 0.052 0.25 0.021 0.1 0.04 0.19 0.061 0.29-0.096 0.66 0.581 4.02 0.881 2.38 0.2-1.1 0.724-1.85 1.675-2.43 0.013 0.06 0.026 0.12 0.04 0.18 0.043 0.14 0.099 0.31 0.074 0.35-0.454 0.81 0.039 4.03 0.381 2.08 0.14-0.8 0.4-1.41 0.968-1.95 0.394-1.34 1.078-2.67 1.569-4.005-0.613 0.795-0.854 1.785-1.221 2.745-0.001 0-0.004-0.01-0.006-0.01-0.512-1.19-0.868-2.368-0.545-3.548-0.437 0.31-0.873 0.703-1.051 1.164-0.056 0.148-0.696 1.794-0.613 1.924-0.317-0.5-0.68-1.07-0.824-1.64-0.188-0.75-0.279-1.412-0.236-2.141-0.968 0.721-1.435 1.838-1.711 2.991-0.225 0.94-0.735-0.61-0.856-1.032-0.242-0.851-0.147-1.577 0.037-2.369-0.953 0.745-2.018 1.657-2.205 2.881-0.195 1.28-0.641-0.03-0.785-0.598-0.221-0.867-0.127-1.6 0.152-2.359zm32.143 0.461c0.53 1.269 0.74 2.546-0.29 3.766 0.03-0.04-0.1-0.43-0.11-0.5-0.15-1.07-0.74-1.814-1.5-2.483 0.06 0.051-1.01-1.121-0.86-0.5 0.06 0.264 0.13 0.529 0.18 0.797 0.22 1.146-0.06 1.986-0.73 2.976 0.01-0.02-0.05-0.18-0.05-0.2-0.219-0.96-0.456-2.057-1.191-2.776-0.492-0.482-0.628-0.908-0.611 0.097 0.021 1.199-0.377 2.189-1.026 3.189-0.001 0-0.002 0-0.003-0.01-0.441-1.25-0.754-2.454-1.907-3.269 0.464 1.249 0.346 2.249-0.306 3.729-0.002 0-0.004-0.01-0.006-0.01-0.435-1.17-0.767-2.45-1.738-3.281 0.155 1.321 0.536 2.581 1.158 3.651 0.124 0.22 0.226 0.45 0.31 0.69-0.003-0.07-0.011-0.14-0.047-0.17 0.642 0.48 1.068 1.09 1.225 1.87 0.066 0.33 0.117 0.65 0.143 0.98 0.002 0.05 0.547-0.85 0.527-0.8 0.321-0.76 0.352-1.25-0.022-1.98-0.006-0.01-0.007-0.06-0.011-0.08-0.031-0.14-0.062-0.29-0.092-0.44-0.002 0-0.003-0.01-0.006-0.01 0.756 0.46 1.387 1.13 1.584 2.02 0.001 0 0.277 1.02 0.354 0.9 0.681-1.13 0.92-1.94 0.738-3.34-0.003-0.01-0.004-0.02-0.002-0.03 0.909 0.6 1.369 1.57 1.629 2.6 0.08 0.31 0.09 0.75 0.39 0.19 0.51-0.95 0.47-1.77 0.21-2.83-0.01-0.06-0.03-0.36-0.07-0.4 1.11 0.88 1.76 1.68 2.12 2.78 0.07 0.19 0.14 0.38 0.19 0.59 0.75-0.91 0.71-1.84 0.19-2.91-0.01-0.01-0.01-0.06-0.01-0.09l-0.09-0.42-0.01-0.01c0.67 0.35 1.19 0.83 1.73 1.33-0.02-0.44-0.02-0.88 0.03-1.34 0.08-0.75 0.16-1.53 0.2-2.319-0.66-0.752-1.34-1.447-2.22-1.957zm-0.01 7.126c-0.23-0.6-0.66-1.08-1.15-1.52 0.09 0.08-0.89-0.95-0.78-0.49 0.06 0.25 0.12 0.49 0.17 0.74 0.19 1.04-0.05 1.78-0.65 2.67 0.01-0.01-0.05-0.17-0.05-0.19-0.2-0.85-0.41-1.82-1.059-2.46-0.41-0.4-0.592-0.84-0.561 0.07 0.038 1.08-0.32 1.96-0.902 2.87-0.002-0.01-0.002-0.01-0.004-0.01-0.424-1.1-0.674-2.19-1.68-2.91 0.412 1.13 0.27 2.06-0.58 3.27 0.004-0.01-0.035-0.13-0.037-0.14-0.245-1.02-0.38-2.04-1.268-2.75 0.132 0.54 0.184 1.09 0.157 1.61-0.022 0.4-0.06 0.81-0.1 1.21 0.473 0.79 0.467 1.56 0.443 2.44 0.791-0.75 1.105-1.44 1.159-2.55 0 0-0.001 0 0-0.01 0.813 0.8 0.787 1.77 0.853 2.78 0.826-0.81 1.325-1.66 1.385-2.84 0 0 0.001-0.01 0.002-0.01 0.775 0.83 0.943 1.99 0.976 3.1 0.916-0.9 1.026-1.73 1.016-3.03v-0.01c0.87 1.09 1.41 2.09 1.45 3.37 0.81-0.66 0.98-1.48 0.74-2.58-0.01-0.05-0.02-0.31-0.06-0.34 0.64 0.56 1.07 1.23 1.44 1.98v0.01c0.47-0.72 0.82-1.5 0.99-2.24 0.25-1.09 0.17-2.09 0.12-3.1-0.46-0.43-0.92-0.83-1.46-1.14h-0.01c0.46 1.12 0.64 2.27-0.26 3.35 0-0.01-0.01-0.07-0.02-0.1l-0.06-0.27c-0.01-0.05-0.03-0.11-0.04-0.13-0.03-0.23-0.09-0.45-0.17-0.65zm0.27 1.05c0 0.02 0.01 0.04 0.01 0.06-0.01-0.06-0.02-0.11-0.03-0.17 0.02 0.05 0.01 0.07 0.02 0.11zm-39.213-4.38c-0.821 0.08-1.639 1.18-1.639 1.18s1.612 0.43 2.205 0.4c0.594-0.03 1.782-0.79 1.782-0.79s-1.529-0.88-2.348-0.79zm6.092 0.84c-0.77 0.49-1.423 1.15-1.944 1.89 0.171 1.56 0.68 2.9 1.434 4.19 0.364-0.65 0.76-1.24 1.342-1.73 0.02 0.09 0.04 0.19 0.06 0.28 0.032 0.11 0.062 0.21 0.053 0.25-0.19 0.83-0.368 1.62 0.369 2.26 0.496 0.42 0.196-0.38 0.256-0.67 0.2-0.98 0.774-1.78 1.395-2.55-0.002 0 0.001 0.01 0 0.02 0.031 0.14 0.062 0.28 0.093 0.43 0.006 0.02 0.02 0.06 0.02 0.08-0.012 0.87-0.02 1.62 0.654 2.31 0.431 0.43 0.31-0.1 0.315-0.43 0.013-0.89 0.289-1.8 0.912-2.45-0.008 0.01 0.012 0.08 0.025 0.14l0.045 0.21c0.015 0.05 0.037 0.13 0.039 0.15 0.103 0.68 1.401 3.53 1.361 1.65-0.016-0.77 0.2-1.51 0.768-2.06-0.001 0.01 0 0.02 0 0.02 0.029 0.14 0.059 0.27 0.088 0.41 0.008 0.03 0.025 0.08 0.025 0.1 0.03 0.78 1.306 2.86 1.076 1.38-0.097-0.62 0.048-1.26 0.401-1.77-0.028-0.36-0.057-0.71-0.074-1.08-0.019-0.39 0.014-0.79 0.078-1.18-0.533 0.72-1.101 1.81-0.754 2.31-0.306-0.44-0.628-0.94-0.762-1.47-0.162-0.63-0.208-1.1-0.08-1.6-0.366 0.27-0.722 0.6-0.871 0.98-0.051 0.14-0.621 1.61-0.547 1.72-0.286-0.45-0.61-0.96-0.74-1.48-0.168-0.67-0.249-1.24-0.221-1.89-0.855 0.65-1.267 1.64-1.514 2.67-0.201 0.84-0.659-0.55-0.767-0.93-0.215-0.75-0.145-1.39 0.01-2.09-0.845 0.66-1.778 1.47-1.942 2.55-0.175 1.15-0.579-0.04-0.707-0.54-0.194-0.76-0.127-1.41 0.104-2.08zm5.045 4.44c-0.812 0.87-0.876 2.02-0.883 3.15v0.02c-1.008-0.96-1.176-1.82-1.194-3.01-0.801 1.01-1.354 1.95-1.244 3.31 0 0 0.001 0 0 0.01-0.951-0.71-1.139-1.75-1.021-2.8-0.401 0.39-0.717 0.83-0.998 1.32 0.464 0.74 1.016 1.49 1.619 2.24 0.172-0.12 0.337-0.21 0.502-0.28-0.253 0.21-0.493 0.5-0.795 0.75 0.304 0.9 0.077 2.31-0.197 4.36-0.274 2.04-1.747 4.16-2.424 4.77-0.677 0.62-0.75 0.85-1.393 0.91-1.181 0.12-1.613 0.12-2.371 0.45-0.664 0.29-1.159 1.19-1.127 1.94 0.018 0.43 0.455 0.38 0.885 0.23-0.212 0.16-0.488 0.4-0.545 0.54-0.218 0.56-0.095 0.78 0.117 1.23 0.285 0.59 1.541 1.14 1.541 1.14s0.454-0.8 0.914-1.54c-0.054 0.12-0.118 0.23-0.156 0.36-0.265 0.93 0.241 1.91 1.258 2.4 1.146 0.56 1.955-0.16 2.664-0.45 0 0-0.508-0.12-0.805-0.39-0.297-0.28-0.477-0.36-0.162-1.01 0.078-0.16 0.13-0.26 0.176-0.32 0.008-0.01 0.017-0.01 0.025-0.01 0.069-0.02 0.137-0.04 0.205-0.05 0.09 0.03 0.203 0.08 0.422 0.1 0.288 0.04 0.662 0.57 0.662 0.57s0.326-0.21 0.463-0.74c0.152-0.59 0.358-2.33 0.112-2.78-0.248-0.45-0.727-0.96-1.221-1.41 3.659-3.82 5.187-9.43 5.16-9.33 0 0-0.659-0.76-1.039-1.18-0.368-0.41-0.443-0.4-1.238-0.72 0.824 0.12 1.57 0.75 2.291 1.53 0.48-0.06 1.021-0.26 1.39-0.42 2.222-0.93 2.319-2.64 2.194-4.57-0.425 0.74-0.254 1.58-0.264 2.43v0.01c-0.9-0.82-1.219-1.59-1.328-2.61-0.646 0.68-0.554 1.41-0.684 2.31-0.138 0.95-1.033-0.55-1.199-1.06-0.152-0.46-0.237-0.92-0.312-1.4zm19.283 0.33c-0.037 0.35-0.076 0.7-0.113 1.06 0.129-1.22 0.592 4.17 1.677 3.59 0.409-0.47 0.804-0.88 1.293-1.19-0.07 0.06-0.144 0.13-0.238 0.24-0.379 0.42-1.039 1.17-1.039 1.17-0.026-0.09 0.29 4.28 3.953 8.1-0.5 0.46-0.975 0.97-1.223 1.42-0.246 0.44-0.172 2.23 0.11 2.78 0.28 0.54 0.463 0.74 0.463 0.74 0.2-0.24 0.51-1.05 0.88-1.5 0.09-0.06 0.17-0.12 0.27-0.16-0.03-0.01-0.06-0.01-0.09-0.02 0.01 0 0.02-0.01 0.03-0.02 0.14-0.03 0.28-0.07 0.42-0.11 0.44 0 0.57 0.17 0.7 0.8 0.14 0.71-0.57 1.53-0.87 1.8-0.3 0.28-0.84 0.46-0.84 0.46 0.92 0.71 2.78 1.63 3.85-0.03 0.52-0.78 0.47-1.09 0.24-1.68 0.12 0.22 0.27 0.5 0.27 0.5s0.78 0.3 1.43-0.21c0.5-0.41 0.58-1.14 0.47-2.01-0.03-0.26-0.33-0.49-0.5-0.62-0.64-0.44-1.52-0.52-1.68-0.53 0.01 0 0.02-0.01 0.02-0.01 0.05-0.01 0.09-0.02 0.13-0.03 0.06-0.01 0.11-0.01 0.17-0.02 0.2-0.01 0.39-0.01 0.54 0.01l-0.05-0.03c0.13 0 0.26 0.02 0.34 0.08 0.24 0.18 1.24 1.05 1.27 0.29s-0.27-1.39-0.93-1.7c-0.65-0.32-1.72-0.57-2.36-0.63-0.65-0.07-0.72-0.11-1.4-0.73-0.67-0.62-1.42-2.78-1.69-4.82-0.28-2.05-0.02-2.18 0.28-3.08-0.38-0.33-0.67-0.71-1.008-0.91h0.039l-0.045-0.2c-0.006-0.03-0.021-0.08-0.021-0.09 0.002-0.84 0.1-1.61-0.526-2.39-0.367-0.46-0.227 0.22-0.306 0.47-0.268 0.88-0.725 1.53-1.383 2.16 0.008-0.01-0.014-0.09-0.029-0.16l-0.037-0.17c-0.019-0.07-0.043-0.15-0.045-0.17-0.088-0.65-0.517-3.19-0.698-1.7-0.103 0.86-0.638 1.48-1.263 2.03 0.007 0-0.015-0.07-0.024-0.12-0.019-0.09-0.037-0.18-0.056-0.27-0.013-0.05-0.034-0.11-0.034-0.13-0.002-0.76 0.123-1.58-0.347-2.26zm6.033 0.28c-0.17 0.05-0.06 0.98-0.07 1.21-0.04 0.63-0.46 1.13-0.9 1.55 0.63 0.12 1.2 0.38 1.03 0.83-0.11 0.29-0.19 0.62-0.25 0.98 1.36-0.34 2.63-1.42 3.5-2.71-0.19-0.37-0.39-0.74-0.68-1.04 0.05 0.05-0.59-0.78-0.5-0.35 0.05 0.21 0.08 0.41 0.12 0.62 0.15 0.88-0.29 1.69-0.99 2.2-0.04-0.18-0.07-0.35-0.11-0.53 0.1-1.12-0.34-1.82-0.98-2.65-0.07-0.1-0.13-0.13-0.17-0.11zm-44.871 1.2c-0.268-0.04-0.515 0.05-0.615 0.25-0.132 0.27 0.048 0.63 0.404 0.81 0.356 0.17 0.753 0.1 0.885-0.17 0.133-0.26-0.048-0.62-0.405-0.8-0.088-0.04-0.18-0.07-0.269-0.09zm38.543 0.54c-0.23 0.37-0.572 0.78-0.977 1.1 0.792 2.42 1.584 4.84 2.375 7.26 0.055 0 0.107 0.01 0.145 0.02 0.78 0.32 1.574 0.56 2.389 0.76-0.12-0.18-0.238-0.35-0.344-0.54-0.941-1.63-2-3.67-2.03-5.62 0.058-0.06 0.111-0.12 0.166-0.19-0.842-0.53-1.353-1.2-1.613-2.22-0.049-0.19-0.084-0.38-0.111-0.57zm1.558 2.98c0-0.02 0.129-0.05 0.268-0.08-0.11 0.01-0.216 0.02-0.268 0.08zm-5.486-2.4c-0.112 0.13-0.163 0.61-0.74 1.09-0.951 0.79-2.233-0.28-2.514-0.48-0.073 3.07-0.147 6.14-0.22 9.21 0.071 0.01 0.135 0.04 0.166 0.1 0.703 1.44 1.492 2.84 2.335 4.2 0.349 0.56 0.408-0.78 0.713-1.37 0.509-0.97 0.988-1.84 1.149-2.96 0.015-0.1 0.096-0.17 0.191-0.21-0.36-3.19-0.72-6.39-1.08-9.58zm0.225 0.05c0.356 3.16 0.712 6.33 1.068 9.49 0.081 0 0.158 0.02 0.207 0.09 0.255 0.31 2.499 3 2.807 2.1 0.425-1.24 0.721-2.38 0.664-3.69-0.004-0.09 0.063-0.15 0.148-0.19-0.783-2.4-1.567-4.8-2.351-7.2-0.675 0.47-1.462 0.64-2.1-0.11-0.213-0.26-0.344-0.4-0.443-0.49zm-11.414 0.34s-0.001 0 0 0h0.002-0.002zc-0.072 0.23-0.16 0.45-0.287 0.64-0.82 1.22-1.931 1.4-3.114 1.8-0.394 1.37-0.935 2.76-1.593 4.07-0.05 0.56-0.094 1.13-0.131 1.69-0.037 0.55-0.437 1.35 0.216 0.87 1.209-0.88 2.43-1.69 3.159-3.08 0.037-0.07 0.141-0.13 0.25-0.16-0.002-0.02-0.01-0.05-0.002-0.07 0.595-1.65 1.189-3.3 1.785-4.95-0.03-0.04-0.059-0.08-0.088-0.13-0.092-0.16-0.156-0.41-0.195-0.68zm19.064 0.07c-0.017 0.01-0.028 0.01-0.045 0.02h-0.027c0.024-0.01 0.048-0.01 0.072-0.02zm-15.053 0.05c-0.012 0-0.031 0-0.045 0.01-0.399 2.56-0.798 5.13-1.197 7.7 0.103 0.02 0.184 0.09 0.188 0.21 0.068 2.05 0.356 4.23 1.008 6.18-0.03-0.09 3.157-4.09 3.324-4.59 0.031-0.09 0.164-0.17 0.299-0.2l0.222-9.27c-0.659 0.65-2.336 2.29-3.179 1.02-0.395-0.6-0.411-1.02-0.62-1.06zm-0.252 0.08c-0.114 0.06-0.253 0.15-0.455 0.3-0.933 0.72-1.985 1.45-2.81 0.58-0.57 1.58-1.141 3.16-1.711 4.74 0.066 0.03 0.109 0.08 0.094 0.18-0.3 1.94-0.344 3.91-0.311 5.86 0.022 1.28 0.206 0.11 0.951-0.54 1.143-0.98 2.163-1.9 2.815-3.29 0.04-0.09 0.144-0.15 0.252-0.17-0.002-0.02-0.009-0.04-0.006-0.06 0.393-2.54 0.788-5.07 1.181-7.6zm-10.632 0.28c-0.032 0.02-0.063 0.04-0.094 0.06-0.029 0-0.057-0.01-0.09-0.01 0.061-0.02 0.122-0.03 0.184-0.05zm-8.52 0.32c-0.171 0-0.364 0.05-0.539 0.17-0.35 0.23-0.493 0.63-0.32 0.89s0.598 0.28 0.949 0.04c0.349-0.23 0.493-0.63 0.318-0.89-0.086-0.13-0.237-0.2-0.408-0.21zm2.91 3.81c-0.196-0.01-0.429 0.04-0.652 0.16-0.446 0.24-0.684 0.67-0.531 0.95 0.152 0.28 0.635 0.31 1.082 0.07 0.445-0.24 0.686-0.66 0.533-0.95-0.076-0.14-0.236-0.22-0.432-0.23zm-9.713 1.18c-0.445 0-0.806 0.23-0.806 0.51s0.361 0.51 0.806 0.51 0.805-0.23 0.805-0.51-0.36-0.51-0.805-0.51zm-1.638 4.43c-0.626-0.02-1.375-0.01-1.869 0.12-0.99 0.26-2.969 1.95-3.28 2.43 0.792 0.26 2.46 0.45 3.393 0.14s2.885-2.62 2.885-2.62-0.504-0.05-1.129-0.07zm3.787 1s-0.792 1.39-0.537 2.8c0.254 1.41 0.791 3.11 1.554 3.81 0.397-0.82 0.847-2.71 0.565-4.01-0.283-1.3-1.582-2.6-1.582-2.6zm8.355 3.12h0.004c-0.02 0.02-0.109 0.11-0.183 0.18 0.07-0.08 0.129-0.14 0.179-0.18zm-11.099 0.33s-0.963 1.86-0.821 3.22c0.141 1.36 1.103 3.42 1.952 3.93 0.282-0.73 0.678-2.6 0.507-3.62-0.169-1.02-1.638-3.53-1.638-3.53z" transform="matrix(.99999 0 0 .99999 -.00031280 0)" fill="#ffcd00"/><g stroke="#000" fill="none"><path d="m26.732 86.268c0-32.948 26.709-59.656 59.656-59.656 32.948 0 59.656 26.709 59.656 59.656s-26.708 59.656-59.656 59.656c-32.947 0-59.656-26.709-59.656-59.656z" stroke-width=".9375"/><path d="m83.152 138.2 39.979-24.047" stroke-width=".19688"/><path d="m79.915 41.98c0.36375-0.2425 0.605-0.30375 1.0281-0.06125 0.425 0.24188 1.2131 1.3938 1.2131 1.3938-0.726 0.121-1.174-0.094-1.537-0.341-0.36-0.245-0.704-0.992-0.704-0.992z" stroke-width=".21875"/></g><g stroke="#000" stroke-width=".21875"><path d="m80.54 41.842s0.34562 0.02062 0.285 0.38375c-0.06063 0.36375-0.18125 0.7275-0.18125 0.7275l-0.728-0.969 0.624-0.142z" fill="#ffcd00"/><path d="m67.14 93.299c-0.07625 1.3625-2.29 5.6256-4.7662 8.9281-2.4975 3.3288-3.7075 9.6838-1.665 13.542 2.0431 3.8588 2.9888 5.58 4.425 7.245 0.04375-0.46813 0.30688-0.76188 0.30688-0.76188s-0.06-0.10937-0.2675-0.27937c-0.99812-0.815-4.0856-5.9775-4.54-8.5494-0.45375-2.5719-0.52938-4.9175 0.53-7.7925 1.0644-2.8894 2.9-4.6194 3.6312-5.7506 0.8325-1.2862 2.2694-4.4631 2.3456-5.2194 0.07563-0.7575 0-1.3625 0-1.3625zm2.95 33.359c0.3725-0.355 1.5962 0.5475 0.12062-0.18063 0 0 1.9219 1.4981 2.9394 1.8369 0.7575 0.2525 2.9119 1.0181 4.3538 0.93313-0.50875 0.31125-2.1206 0.33875-3.0244 0.14188-0.90562-0.19813-3.4781-1.0469-4.3825-2.205-0.18812-0.24188-0.13625-0.405-0.0069-0.52625zm-4.9969-3.4319c-0.53688-0.39562-2.6575-1.5838-3.8731-1.9794-1.2156-0.39563-1.1875-0.53688-2.2612-0.64938-1.0744-0.11375-2.1775 0.0556-2.1775 0.0556m1.3856-0.1131c-0.42438 0.53688-0.81938 1.0456-1.1312 2.0356-0.31062 0.98937-0.22625 2.6006-0.22625 2.6006m2.8838-4.4381c-0.05625 0.22625-0.1975 0.31125-0.22625 0.99m3.1669-2.4606c-0.79188-0.87562-2.0356-1.7519-2.9969-2.12-0.96188-0.36687-1.555-0.50875-1.555-0.50875m6.0212 4.0438c-0.33875-0.99-0.4525-2.1212 0.19812-2.7706 0.65062-0.65063 1.725-1.7538 1.725-1.7538m-4.3825 0.11312c-0.22625-0.98875-0.1125-3.4775 1.64-4.1844m-3.4494 1.0469c-0.25375-0.50875-1.385-2.7144-3.0531-3.4775m4.2406-5.2019c-0.142-0.44-0.341-0.98-0.114-1.74" fill="none"/><path d="m93.834 53.674c-0.89625 0-4.0519-2.0269-4.9444-3.4856-0.891-1.459-1.768-3.632-2.674-4.538-0.892-0.892-2.837-1.621-2.837-1.621m5.835 2.5931c-0.97188-0.48625-1.54-1.0538-2.35-1.8644-0.81062-0.81-1.945-1.7019-2.6744-1.945-0.73-0.243-1.054-0.243-1.054-0.243" fill="none"/></g></g></svg>
